<svg xmlns="http://www.w3.org/2000/svg" viewBox="0 0 3000 3000" id="EmptyInbox"><path fill="#9caeba" d="M2587.91 780.03v-.36c-.02.06-.04.12-.05.18-.02-.06-.04-.12-.05-.18v.36c-4.71 17.09-15.6 29.31-32.67 36.66 17.07 7.35 27.96 19.57 32.67 36.66v.36c.02-.06.04-.12.05-.18.02.06.04.12.05.18v-.36c4.71-17.09 15.6-29.31 32.67-36.66-17.07-7.35-27.96-19.57-32.67-36.66zM1931.15 331.12v-.36c-.02.06-.04.12-.05.18-.02-.06-.04-.12-.05-.18v.36c-4.71 17.09-15.6 29.31-32.67 36.66 17.07 7.35 27.96 19.57 32.67 36.66v.36c.02-.06.04-.12.05-.18.02.06.04.12.05.18v-.36c4.71-17.09 15.6-29.31 32.67-36.66-17.07-7.35-27.96-19.57-32.67-36.66zM933.91 1907.61v-.36c-.02.06-.04.12-.05.18-.02-.06-.04-.12-.05-.18v.36c-4.71 17.09-15.6 29.31-32.67 36.66 17.07 7.35 27.96 19.57 32.67 36.66v.36c.02-.06.04-.12.05-.18.02.06.04.12.05.18v-.36c4.71-17.09 15.6-29.31 32.67-36.66-17.07-7.35-27.96-19.57-32.67-36.66zM394.15 1423.75v-.36c-.02.06-.04.12-.05.18-.02-.06-.04-.12-.05-.18v.36c-4.71 17.09-15.6 29.31-32.67 36.66 17.07 7.35 27.96 19.57 32.67 36.66v.36c.02-.06.04-.12.05-.18.02.06.04.12.05.18v-.36c4.71-17.09 15.6-29.31 32.67-36.66-17.07-7.35-27.96-19.57-32.67-36.66zM394.2 1995.01v-.73c-.03.13-.07.24-.1.37-.03-.13-.07-.24-.1-.37v.73c-9.42 34.17-31.2 58.62-65.34 73.32 34.14 14.7 55.91 39.15 65.34 73.32v.73c.03-.13.07-.24.1-.37.03.13.07.24.1.37v-.73c9.42-34.17 31.2-58.62 65.34-73.32-34.14-14.7-55.91-39.15-65.34-73.32zM2485.22 220.41v-.73c-.03.13-.07.24-.1.37-.03-.13-.07-.24-.1-.37v.73c-9.42 34.17-31.2 58.62-65.34 73.32 34.14 14.7 55.91 39.15 65.34 73.32v.73c.03-.13.07-.24.1-.37.03.13.07.24.1.37v-.73c9.42-34.17 31.2-58.62 65.34-73.32-34.14-14.7-55.91-39.15-65.34-73.32z" class="color9ca9ba svgShape"></path><path fill="#ffffff" d="m2874.73,2875c-364.08-328.14-846.14-527.88-1374.87-527.88s-1010.79,199.74-1374.86,527.88" class="colorffffff svgShape"></path><path fill="#134f72" d="m2874.73,2880c-1.19,0-2.39-.42-3.35-1.29-90.87-81.9-189.57-156.05-293.35-220.38-104.89-65.02-216.2-120.76-330.81-165.67-238-93.26-489.44-140.54-747.35-140.54s-509.35,47.29-747.35,140.54c-114.62,44.91-225.92,100.65-330.81,165.67-103.78,64.33-202.48,138.48-293.35,220.38-2.05,1.85-5.21,1.68-7.06-.37-1.85-2.05-1.68-5.21.37-7.06,91.32-82.3,190.49-156.81,294.78-221.45,105.41-65.34,217.25-121.35,332.43-166.48,239.17-93.72,491.84-141.23,751-141.23s511.83,47.52,751,141.23c115.18,45.13,227.03,101.15,332.43,166.48,104.29,64.64,203.46,139.15,294.78,221.45,2.05,1.85,2.21,5.01.37,7.06-.99,1.1-2.35,1.65-3.72,1.65Z" class="color535a63 svgShape"></path><path fill="#ffffff" d="m326.3,2715.12v-83.79s111.49-121.59,245.22-196.56c229.61-128.72,347.43-113.22,347.43-113.22l163.37,68.05s-108.06,152.18-326.42,262.61c-159.3,80.56-293.98,111.33-293.98,111.33" class="colorffffff svgShape"></path><path fill="#134f72" d="m461.93,2768.53c-2.28,0-4.34-1.57-4.87-3.89-.62-2.69,1.07-5.37,3.76-5.99,1.34-.31,135.97-31.59,292.83-110.92,112.25-56.77,194.59-124.8,243.9-171.87,42.06-40.15,67.79-72.19,76.93-84.13l-156.79-65.31c-4.47-.44-33.66-2.59-86.13,8.51-95.29,20.17-192.68,67.79-257.6,104.18-123.8,69.4-229.74,180.38-242.67,194.17v81.83c0,2.76-2.24,5-5,5s-5-2.24-5-5v-83.79c0-1.25.47-2.46,1.31-3.38,1.12-1.22,113.57-123.04,246.46-197.55,65.77-36.87,164.49-85.09,261.24-105.41,58.32-12.25,88.05-8.57,89.29-8.4.44.06.86.17,1.27.34l163.37,68.05c1.4.58,2.46,1.78,2.88,3.24.42,1.46.15,3.03-.73,4.27-.27.38-27.92,39.03-81.95,90.62-49.8,47.54-132.95,116.24-246.29,173.56-158.02,79.91-293.77,111.43-295.12,111.74-.37.09-.75.13-1.12.13Z" class="color535a63 svgShape"></path><path fill="#134f72" d="m394.1,2638.06c-2,0-3.89-1.21-4.66-3.18-1-2.57.26-5.47,2.83-6.48.33-.13,35.14-13.89,201.51-90.71,165.59-76.46,229.11-145.61,229.74-146.3,1.85-2.05,5.01-2.21,7.06-.37,2.05,1.85,2.22,5.01.37,7.06-.65.73-16.42,18.08-53.15,45.21-33.71,24.89-92.28,63.06-179.83,103.48-166.95,77.08-200.7,90.41-202.06,90.94-.6.23-1.21.34-1.82.34Z" class="color535a63 svgShape"></path><path fill="#ffffff" d="m1872.23,2380.86s122.43-33.75,139.94-33.75c51.66,0,133.35,9.4,320.18,96.04,186.83,86.64,298.27,181.74,298.27,181.74l66.63,107.07s-178.45,22.89-423.09-71.87c-244.64-94.77-366.48-197.66-366.48-197.66" class="colorffffff svgShape"></path><path fill="#134f72" d="m2644.55,2739.43c-18.3,0-40.98-.71-67.52-2.87-68.94-5.61-177.75-22.62-304.68-71.8-69.95-27.1-174.57-72.47-275.79-134.77-60.66-37.33-91.8-63.47-92.11-63.73-2.11-1.78-2.38-4.94-.59-7.05,1.78-2.11,4.93-2.38,7.05-.6.3.26,31.04,26.03,91.15,63.01,55.48,34.13,148.03,85.04,273.91,133.81,125.65,48.67,233.32,65.54,301.52,71.12,56.06,4.59,95.35,2.51,111.26,1.21l-61.95-99.56c-8.94-7.48-119.4-98.37-296.55-180.52-83.96-38.94-152.63-65.18-209.94-80.21-51.91-13.62-85.05-15.36-108.13-15.36-13.8,0-104.74,24.23-138.61,33.57-2.67.73-5.42-.83-6.15-3.49-.73-2.66.83-5.42,3.49-6.15,12.6-3.47,123.59-33.93,141.27-33.93,56.47,0,138.92,11.47,322.28,96.5,96.81,44.9,173.01,92.08,219.89,123.76,50.86,34.36,79.24,58.48,79.52,58.72.39.33.73.73,1,1.16l66.63,107.07c.9,1.45,1,3.25.27,4.79-.73,1.54-2.19,2.6-3.88,2.81-1.19.15-20.01,2.49-53.33,2.49Z" class="color535a63 svgShape"></path><path fill="#134f72" d="m2555.15,2629.09c-.18,0-.36,0-.55-.03-1.38-.15-140.11-15.82-293.07-83.73-44.11-19.58-108.49-51.06-164.73-89.85-33.83-23.33-48.52-38.1-49.13-38.72-1.94-1.97-1.92-5.13.05-7.07,1.96-1.94,5.13-1.92,7.07.05.72.73,59.87,59.44,210.8,126.45,151.46,67.24,288.72,82.78,290.09,82.92,2.75.3,4.73,2.77,4.43,5.51-.28,2.56-2.45,4.46-4.96,4.46Z" class="color535a63 svgShape"></path><path fill="#7a8a93" d="m1577.03,2367.77c-29.23,29.7-60.02,31.41-92.37,5.16l-63.13-1130.67,92.37-5.16,63.13,1130.67Z" class="color7a8593 svgShape"></path><path fill="#134f72" d="m1529.2,2396.41c-15.63,0-31.66-6.58-47.7-19.6-1.09-.89-1.76-2.2-1.84-3.6l-63.13-1130.67c-.07-1.32.38-2.62,1.26-3.61.88-.99,2.12-1.59,3.45-1.66l92.37-5.16c2.75-.15,5.12,1.96,5.27,4.71l63.12,1130.67c.08,1.41-.44,2.78-1.43,3.79-15.44,15.69-31.69,24.12-48.3,25.05-1.03.06-2.06.09-3.09.09Zm-39.68-26c29.05,22.7,56.04,21.19,82.38-4.6l-62.72-1123.44-82.38,4.6,62.72,1123.44Z" class="color535a63 svgShape"></path><path fill="#bed4e2" d="m2006.05,1309.95l-4.01-222.91c-.45-97.29-71.57-259.36-171.84-272.52h0s-631.08-82.84-631.08-82.84l-77.92,593.65,510.32,66.98,120.76,15.85,120.76,15.85c72.12,9.47,133.38-44.08,133.01-114.07Z" class="colorbecee2 svgShape"></path><path fill="#134f72" d="m1889.29,1430.08c-5.6,0-11.25-.37-16.9-1.11l-751.84-98.69c-2.74-.36-4.67-2.87-4.31-5.61l77.92-593.65c.17-1.31.86-2.51,1.91-3.31,1.05-.81,2.38-1.16,3.7-.99l631.08,82.84c46.71,6.13,91.83,44.21,127.06,107.23,30.06,53.77,48.89,119,49.13,170.23l4.01,222.84s0,.04,0,.06c.18,34.43-14.42,67.16-40.06,89.78-22.34,19.71-51.42,30.38-81.7,30.38Zm-762.48-109.06l746.89,98.04c33.32,4.38,66.37-5.42,90.68-26.86,23.47-20.7,36.84-50.66,36.68-82.2l-4.01-222.88c-.23-49.7-18.57-113.07-47.86-165.46-33.65-60.19-76.14-96.48-119.63-102.19l-626.13-82.19-76.62,583.73Z" class="color535a63 svgShape"></path><path fill="#7a8a93" d="m1241.96,1341.18l-241.52-31.7c-72.12-9.47-117.49-77.01-99.07-144.53l61.4-214.32c25.55-93.88,136.08-232.1,236.34-218.94h0c100.26,13.16,171.38,175.22,171.84,272.52l4.01,222.91c.38,69.99-60.89,123.53-133.01,114.07Z" class="color7a8593 svgShape"></path><path fill="#134f72" d="m1258.21,1347.24c-5.6,0-11.25-.37-16.9-1.11l-241.52-31.7c-36.18-4.75-68.15-24.33-87.7-53.73-18.94-28.47-24.6-63.86-15.54-97.08l61.42-214.39c13.43-49.36,48.45-107.52,91.38-151.72,50.3-51.79,103.71-76.93,150.43-70.8,46.71,6.13,91.83,44.21,127.06,107.23,30.06,53.77,48.89,119,49.13,170.23l4.01,222.84c.19,34.5-14.42,67.22-40.06,89.84-22.34,19.71-51.42,30.38-81.7,30.38Zm-15.6-11.02c33.32,4.37,66.37-5.42,90.68-26.86,23.48-20.71,36.85-50.68,36.68-82.23l-4.01-222.85c-.23-49.7-18.57-113.07-47.86-165.46-33.65-60.19-76.14-96.48-119.63-102.19-43.5-5.71-93.91,18.39-141.95,67.85-41.81,43.05-75.88,99.55-88.92,147.44l-61.42,214.39c-8.29,30.37-3.11,62.78,14.23,88.84,17.95,26.99,47.36,44.98,80.68,49.35l241.52,31.7Z" class="color535a63 svgShape"></path><path fill="#ffffff" d="m1250.47,1342.3l-233.04-30.59c-69.58-9.13-150.56,20.84-175.01,63.73l-75.05,136.75c-34.07,59.63-19.64,162.2,77.1,174.9h0c96.74,12.7,257.59-66.87,316.75-123.2l138.17-128.46c42.6-40.51,20.67-83.99-48.91-93.12Z" class="colorffffff svgShape"></path><path fill="#134f72" d="m866.05,1693.42c-7.72,0-15.15-.44-22.24-1.37-50.1-6.58-74.15-35.23-85.5-58.1-18.42-37.13-16.53-87.06,4.71-124.23l75-136.67c12.49-21.91,38.49-40.94,73.25-53.67,34.54-12.64,72.47-17.12,106.8-12.62l233.04,30.59c38.98,5.12,65.58,21.09,72.99,43.83,6.04,18.53-1.52,39.08-21.29,57.87l-138.21,128.5c-57.36,54.62-200.74,125.86-298.56,125.87Zm125.71-378.34c-60.55,0-124.27,26.49-145,62.84l-75.01,136.68c-19.7,34.48-21.49,80.63-4.48,114.9,10.27,20.7,32.11,46.63,77.84,52.63,42.65,5.6,102.97-6.96,169.86-35.36,57.82-24.55,112.53-57.69,142.79-86.51l138.21-128.5c16.77-15.95,23.4-32.83,18.63-47.49-6.08-18.65-30.29-32.49-64.78-37.02l-233.04-30.59c-8.19-1.08-16.58-1.59-25.02-1.59Z" class="color535a63 svgShape"></path><rect width="122.8" height="85.11" x="1555.47" y="637.4" fill="#ffffff" transform="rotate(7.48 1616.408 679.712)" class="colorffffff svgShape"></rect><path fill="#134f72" d="m1672.21,735.13c-.22,0-.44-.01-.66-.04l-121.75-15.98c-1.32-.17-2.51-.86-3.32-1.91s-1.16-2.38-.99-3.7l11.08-84.38c.36-2.74,2.88-4.67,5.61-4.31l121.75,15.98c1.32.17,2.51.86,3.32,1.91s1.16,2.38.99,3.7l-11.08,84.38c-.33,2.52-2.48,4.35-4.95,4.35Zm-116.15-25.29l111.84,14.68,9.77-74.47-111.84-14.68-9.77,74.47Z" class="color535a63 svgShape"></path><rect width="206.69" height="51.06" x="1695.07" y="1051.03" fill="#ffffff" rx="23.72" ry="23.72" transform="rotate(7.48 1797.88 1076.207)" class="colorffffff svgShape"></rect><path fill="#134f72" d="m1877.14,1117.44c-1.24,0-2.49-.08-3.76-.25h0l-157.9-20.73c-7.61-1-14.37-4.9-19.04-10.98-4.67-6.08-6.7-13.62-5.7-21.23l.47-3.6c2.06-15.7,16.51-26.8,32.21-24.74l157.9,20.73c7.61,1,14.37,4.9,19.04,10.98,4.67,6.08,6.7,13.62,5.7,21.23l-.47,3.6c-1.9,14.44-14.27,24.98-28.45,24.98Zm-2.46-10.16c10.24,1.34,19.65-5.89,21-16.12l.47-3.6c.65-4.96-.67-9.87-3.71-13.84-3.05-3.97-7.45-6.51-12.41-7.16l-157.9-20.73c-10.23-1.34-19.65,5.89-21,16.12l-.47,3.6c-.65,4.96.67,9.87,3.71,13.84,3.05,3.97,7.45,6.51,12.41,7.16l157.9,20.73Z" class="color535a63 svgShape"></path><rect width="206.69" height="51.06" x="1680.51" y="1161.93" fill="#ffffff" rx="23.72" ry="23.72" transform="rotate(7.48 1783.388 1187.079)" class="colorffffff svgShape"></rect><path fill="#134f72" d="m1862.59,1228.34c-1.24,0-2.5-.08-3.76-.25l-157.9-20.73c-7.61-1-14.37-4.9-19.04-10.98-4.67-6.08-6.7-13.62-5.7-21.23l.47-3.6c1-7.6,4.9-14.37,10.98-19.04,6.08-4.67,13.62-6.69,21.23-5.7l157.9,20.73c15.7,2.06,26.8,16.51,24.74,32.21l-.47,3.6c-1.89,14.44-14.27,24.98-28.45,24.98Zm-157.48-71.76c-4.1,0-8.06,1.34-11.36,3.88-3.96,3.05-6.51,7.45-7.16,12.41l-.47,3.6c-.65,4.96.67,9.87,3.71,13.84,3.05,3.97,7.45,6.51,12.41,7.16l157.9,20.73h0c10.25,1.34,19.65-5.89,21-16.12l.47-3.6c1.34-10.23-5.89-19.65-16.12-20.99l-157.9-20.73c-.83-.11-1.65-.16-2.47-.16Z" class="color535a63 svgShape"></path><g fill="#1b262c" class="color000000 svgShape"><circle cx="2495.83" cy="1682.91" r="276.93" fill="#bbe1fa" class="colord1def0 svgShape"></circle><path fill="#adbdc8" d="m2550.41,1411.37c1.64,41.59-1.16,84.99-15.02,114.26-34.74,73.33-88.77,96.49-212.28,157.28-50.58,24.9-71.29,71.32-78.12,117.45,19.67,41.94,49.55,78.14,86.44,105.4,8.33-34.86,24.07-73.65,53.43-106.1,73.33-81.05,185.26-3.86,314.75-69.47,34.32-17.39,56.81-46.17,71.32-79.08-13.7-119.83-103.88-216.42-220.52-239.74Z" class="coloradb9c8 svgShape"></path></g><g fill="#1b262c" class="color000000 svgShape"><circle cx="537.89" cy="587.1" r="229.53" fill="#e9f6ff" class="colore9f3ff svgShape"></circle><path fill="#adbdc8" d="m190.38,790.96c-20.38,0-32.3-4.5-36.34-13.68-5.76-13.11,6.54-31.91,37.6-57.47,27.65-22.75,69.68-50.26,121.54-79.57,2.4-1.36,5.45-.51,6.81,1.89,1.36,2.4.51,5.45-1.89,6.81-51.36,29.03-92.89,56.2-120.1,78.59-37.41,30.78-36.1,42.78-34.8,45.72,1.57,3.58,15.06,19.92,126.55-9.46,77.96-20.55,177.71-56.85,280.89-102.23,103.18-45.38,197.36-94.36,265.19-137.93,97.01-62.31,94.08-83.3,92.51-86.88-1.28-2.91-9.13-11.91-56.35-5.37-34.36,4.76-81.78,16.73-137.16,34.62-2.63.85-5.45-.59-6.29-3.22-.85-2.63.59-5.45,3.22-6.29,55.92-18.06,103.93-30.17,138.86-35.01,39.28-5.44,61.15-1.76,66.88,11.25,4.62,10.51-2.26,24.5-21.05,42.77-16.54,16.09-41.84,35.11-75.21,56.54-68.26,43.84-162.93,93.09-266.57,138.67-103.64,45.58-203.92,82.07-282.37,102.75-38.35,10.11-69.47,15.9-92.5,17.21-3.32.19-6.45.28-9.41.28Z" class="coloradb9c8 svgShape"></path></g><g fill="#1b262c" class="color000000 svgShape"><rect width="32.83" height="454.88" x="1506.48" y="626.65" fill="#ffffff" transform="rotate(7.48 1522.475 853.85)" class="colorffffff svgShape"></rect><path fill="#134f72" d="m1509.57,1086.73c-.22,0-.43-.01-.65-.04l-32.55-4.27c-2.74-.36-4.67-2.87-4.31-5.61l59.2-451.01c.17-1.31.86-2.51,1.91-3.31,1.05-.81,2.38-1.17,3.7-.99l32.55,4.27c2.74.36,4.67,2.87,4.31,5.61l-59.2,451.01c-.17,1.31-.86,2.51-1.91,3.31-.88.67-1.95,1.03-3.04,1.03Zm-26.94-13.58l22.63,2.97,57.9-441.09-22.63-2.97-57.9,441.09Z" class="color535a63 svgShape"></path></g><g fill="#1b262c" class="color000000 svgShape"><circle cx="1518.82" cy="1099.94" r="60.79" fill="#ffffff" class="colorffffff svgShape"></circle><path fill="#134f72" d="m1518.96,1165.75c-2.89,0-5.79-.19-8.7-.57-17.42-2.29-32.91-11.22-43.62-25.16-10.7-13.94-15.34-31.21-13.05-48.63h0c2.29-17.42,11.22-32.91,25.16-43.62,13.94-10.7,31.21-15.34,48.63-13.05,35.97,4.72,61.39,37.82,56.67,73.79-2.29,17.42-11.22,32.91-25.16,43.62-11.61,8.92-25.54,13.62-39.94,13.62Zm-.25-121.6c-12.21,0-24.02,3.99-33.87,11.55-11.82,9.08-19.4,22.21-21.34,36.99h0c-1.94,14.78,1.99,29.42,11.07,41.24,9.08,11.82,22.21,19.4,36.99,21.34,14.77,1.94,29.42-1.99,41.24-11.07,11.82-9.08,19.4-22.21,21.34-36.99,4-30.5-17.55-58.57-48.06-62.58-2.47-.32-4.93-.48-7.38-.48Zm-60.16,47.89h0,0Z" class="color535a63 svgShape"></path></g></svg>