<svg xmlns="http://www.w3.org/2000/svg" viewBox="0 0 1080 1080" id="PasswordSecurity"><g data-name="Password Recovery" fill="#000000" class="color000000 svgShape"><path fill="#00a1ff" d="M140.69 518.79a23.17 23.17 0 1 1 23.17-23.17 23.19 23.19 0 0 1-23.17 23.17Zm0-42.33a19.17 19.17 0 1 0 19.17 19.16 19.18 19.18 0 0 0-19.17-19.16ZM593.65 121.7a2 2 0 0 1-1.36-3.48l38.16-35.08a2 2 0 1 1 2.71 2.94L595 121.17a2 2 0 0 1-1.35.53Z" class="colorffc600 svgShape"></path><path fill="#00a1ff" d="M630.27 123.23a2 2 0 0 1-1.47-.64l-35.09-38.16a2 2 0 1 1 2.95-2.71l35.08 38.16a2 2 0 0 1-1.47 3.35ZM719.63 998.93h-50.42a2 2 0 0 1-1.73-3l25.21-43.67a2 2 0 0 1 3.46 0l25.22 43.67a2 2 0 0 1-1.74 3Zm-47-4h43.5l-21.75-37.67Z" class="colorffc600 svgShape"></path><path fill="#134f72" d="M523.23 895.35c-1 0 7.64 5.64-124.17-84.41a357.54 357.54 0 0 1-155.95-295.4V254a2 2 0 0 1 .94-1.69c.31-.2 31.87-19.95 81.79-39.41 46.08-18 117.73-39.38 197.39-39.38s151.3 21.41 197.38 39.38c49.93 19.46 81.49 39.21 81.8 39.41a2 2 0 0 1 .94 1.69v261.54a357.54 357.54 0 0 1-156 295.4c-131.88 90.13-123.16 84.41-124.12 84.41ZM247.11 255.13v260.41a353.53 353.53 0 0 0 154.2 292.09l121.92 83.29 121.92-83.29a353.53 353.53 0 0 0 154.2-292.09V255.13c-5.56-3.38-35.44-21.06-80.28-38.53-45.74-17.83-116.85-39.07-195.84-39.07s-150.1 21.24-195.84 39.07c-44.84 17.47-74.72 35.15-80.28 38.53Z" class="color67017b svgShape"></path><path fill="#00a1ff" d="M422.75 776.26a315.57 315.57 0 0 1-137.64-260.72V277.45c38.36-20 131.42-61.92 238.12-61.92s199.71 41.88 238.12 61.92v238.09a315.57 315.57 0 0 1-137.64 260.72L523.23 844.9Z" class="colorffc600 svgShape"></path><path fill="#28abf7" d="M68.14 653.95h471.24v84.47H68.14z" class="colorf75028 svgShape"></path><path fill="#ffffff" d="M128.92 720.74a2 2 0 0 1-2-2v-46.26a2 2 0 0 1 4 0v46.26a2 2 0 0 1-2 2Z" class="colorffffff svgShape"></path><path fill="#ffffff" d="M108.89 709.17a2 2 0 0 1-1-3.73L148 682.31a2 2 0 1 1 2 3.46c-42.85 24.72-40.32 23.4-41.11 23.4Z" class="colorffffff svgShape"></path><path fill="#ffffff" d="M149 709.17c-.8 0 1.67 1.28-41.07-23.4a2 2 0 0 1 2-3.46L150 705.44a2 2 0 0 1-1 3.73ZM199.46 721.13a2 2 0 0 1-2-2v-46.27a2 2 0 0 1 4 0v46.27a2 2 0 0 1-2 2Z" class="colorffffff svgShape"></path><path fill="#ffffff" d="M179.43 709.56a2 2 0 0 1-1-3.73l40.07-23.13a2 2 0 1 1 2 3.46c-42.82 24.71-40.29 23.4-41.07 23.4Z" class="colorffffff svgShape"></path><path fill="#ffffff" d="M219.49 709.56c-.79 0 1.67 1.28-41.07-23.4a2 2 0 0 1 2-3.46l40.07 23.13a2 2 0 0 1-1 3.73ZM270 721.51a2 2 0 0 1-2-2v-46.26a2 2 0 0 1 4 0v46.26a2 2 0 0 1-2 2Z" class="colorffffff svgShape"></path><path fill="#ffffff" d="M250 710a2 2 0 0 1-1-3.74l40-23.18a2 2 0 0 1 2 3.47C248.21 711.26 250.75 710 250 710Z" class="colorffffff svgShape"></path><path fill="#ffffff" d="M290 710c-.79 0 1.68 1.27-41.06-23.4a2 2 0 1 1 2-3.47L291 706.21a2 2 0 0 1-1 3.79ZM340.52 721.9a2 2 0 0 1-2-2v-46.27a2 2 0 0 1 4 0v46.27a2 2 0 0 1-2 2Z" class="colorffffff svgShape"></path><path fill="#ffffff" d="M320.49 710.33a2 2 0 0 1-1-3.73l40.06-23.13a2 2 0 1 1 2 3.46c-42.8 24.72-40.27 23.4-41.06 23.4Z" class="colorffffff svgShape"></path><path fill="#ffffff" d="M360.55 710.33c-.79 0 1.68 1.28-41.06-23.4a2 2 0 1 1 2-3.46l40.06 23.13a2 2 0 0 1-1 3.73ZM426.92 718H383a2 2 0 0 1 0-4h43.95a2 2 0 1 1 0 4ZM498.63 718h-43.95a2 2 0 0 1 0-4h43.95a2 2 0 1 1 0 4Z" class="colorffffff svgShape"></path><path fill="#134f72" d="M598.26 468.52h-25.47v-62.29a49.56 49.56 0 1 0-99.12 0v62.29H448.2v-62.29a75 75 0 1 1 150.06 0Z" class="color67017b svgShape"></path><rect width="205.7" height="157.81" x="420.38" y="424.06" fill="#0887d1" rx="14.66" class="color08c7d1 svgShape"></rect><circle cx="523.23" cy="491.48" r="17.34" fill="#134f72" class="color67017b svgShape"></circle><path fill="#134f72" d="M515.17 498.08h16.12v33.71h-16.12z" class="color67017b svgShape"></path><path fill="#0887d1" d="M130 121.35h169.31a12.56 12.56 0 0 1 12.56 12.56v151.33l22.59 26.86H130a12.55 12.55 0 0 1-12.55-12.56V133.91A12.56 12.56 0 0 1 130 121.35Z" class="color08c7d1 svgShape"></path><path fill="#ffffff" d="M244.18 260.9a52.89 52.89 0 0 1-82.07-44.11h-16.92a69.81 69.81 0 0 0 110 57.11 7.71 7.71 0 0 0 1.1-.93l8.95 8.94 8.7-40.37-40.37 8.7ZM185.82 172.69a52.89 52.89 0 0 1 82.07 44.1h16.92a69.81 69.81 0 0 0-110-57.1 8.31 8.31 0 0 0-1.1.93l-8.95-9L156.1 192l40.37-8.7Z" class="colorffffff svgShape"></path><circle cx="940.95" cy="844.85" r="70.91" fill="#00a1ff" class="colorffc600 svgShape"></circle><circle cx="971.53" cy="844.85" r="21.18" fill="#134f72" class="color67017b svgShape"></circle><path fill="#00a1ff" d="M917.32 816.92v55.86h-70.2a12.19 12.19 0 0 0-24.33 0h-32.92l-12.93-8.59-12.62 8.59-13.16-8.59-10 8.59h-35.84l-21.49-27.21 21.49-28.65Z" class="colorffc600 svgShape"></path><path fill="#ffffff" d="M871.48 843.27H718.21a2 2 0 0 1 0-4h153.27a2 2 0 0 1 0 4Z" class="colorffffff svgShape"></path><path fill="#0887d1" d="M948.64 742.24a2 2 0 0 1-2-2v-12a2 2 0 0 1 4 0v12a2 2 0 0 1-2 2Zm0-24a2 2 0 0 1-2-2v-12a2 2 0 0 1 4 0v12a2 2 0 0 1-2 2Zm0-24a2 2 0 0 1-2-2v-12a2 2 0 0 1 4 0v12a2 2 0 0 1-2 2Zm0-24a2 2 0 0 1-2-2v-12a2 2 0 0 1 4 0v12a2 2 0 0 1-2 2Zm0-24a2 2 0 0 1-2-2v-12a2 2 0 0 1 4 0v12a2 2 0 0 1-2 2Zm0-24a2 2 0 0 1-2-2v-12a2 2 0 0 1 4 0v12a2 2 0 0 1-2 2Zm0-24a2 2 0 0 1-2-2v-12a2 2 0 0 1 4 0v12a2 2 0 0 1-2 2Zm0-24a2 2 0 0 1-2-2v-12a2 2 0 0 1 4 0v12a2 2 0 0 1-2 2Zm0-24a2 2 0 0 1-2-2v-12a2 2 0 0 1 4 0v12a2 2 0 0 1-2 2Zm0-24a2 2 0 0 1-2-2v-12a2 2 0 0 1 4 0v12a2 2 0 0 1-2 2Zm0-24a2 2 0 0 1-2-2v-12a2 2 0 0 1 4 0v12a2 2 0 0 1-2 2Zm-6.52-17.48h-12a2 2 0 0 1 0-4h12a2 2 0 1 1 0 4Zm-24 0h-12a2 2 0 0 1 0-4h12a2 2 0 1 1 0 4Zm-24 0h-12a2 2 0 0 1 0-4h12a2 2 0 1 1 0 4Zm-24 0h-12a2 2 0 0 1 0-4h12a2 2 0 1 1 0 4Zm-24 0h-12a2 2 0 0 1 0-4h12a2 2 0 1 1 0 4Zm-24 0h-12a2 2 0 0 1 0-4h12a2 2 0 1 1 0 4Z" class="color08c7d1 svgShape"></path><path fill="#28abf7" d="M754.8 168.66a2 2 0 0 1-2-2.36l14.43-79.2a2 2 0 0 1 3.94.71L756.76 167a2 2 0 0 1-1.96 1.66ZM806.59 193.17a2 2 0 0 1-1.52-3.29l52.1-61.38a2 2 0 1 1 3.05 2.59l-52.11 61.38a2 2 0 0 1-1.52.7ZM830.77 243.31a2 2 0 0 1-1.89-1.33 2 2 0 0 1 1.21-2.55l84.24-30.12a2 2 0 0 1 1.34 3.77c-90.37 32.31-84.37 30.23-84.9 30.23ZM170.1 991.44a104 104 0 0 1-51.72-13.76 2 2 0 1 1 2-3.47 100.14 100.14 0 1 0-19.92-15 2 2 0 0 1-2.8 2.79 103.95 103.95 0 1 1 72.44 29.4Z" class="colorf75028 svgShape"></path><path fill="#28abf7" d="M244.18 930.1a85.47 85.47 0 0 1-148.18 0 85.48 85.48 0 0 1 148.17 0Z" class="colorf75028 svgShape"></path><circle cx="170.1" cy="853.6" r="37.39" fill="#28abf7" class="colorf75028 svgShape"></circle><path fill="#0887d1" d="M351.23 888.44h-12a2 2 0 0 1 0-4h12a2 2 0 0 1 0 4Zm-24 0h-12a2 2 0 0 1 0-4h12a2 2 0 0 1 0 4Zm-24 0h-12a2 2 0 0 1 0-4h12a2 2 0 0 1 0 4Zm58-2a2 2 0 0 1-2-2v-12a2 2 0 0 1 4 0v12a2 2 0 0 1-2 2Zm0-24a2 2 0 0 1-2-2v-12a2 2 0 0 1 4 0v12a2 2 0 0 1-2 2Zm0-24a2 2 0 0 1-2-2v-12a2 2 0 0 1 4 0v12a2 2 0 0 1-2 2Zm0-24a2 2 0 0 1-2-2v-12a2 2 0 0 1 4 0v12a2 2 0 0 1-2 2Zm0-24a2 2 0 0 1-2-2v-12a2 2 0 0 1 4 0v12a2 2 0 0 1-2 2Zm0-24a2 2 0 0 1-2-2v-12a2 2 0 0 1 4 0v12a2 2 0 0 1-2 2Z" class="color08c7d1 svgShape"></path></g></svg>