<svg xmlns="http://www.w3.org/2000/svg" viewBox="0 0 5000 3000" id="PhoneSecurityPassword"><path fill="#6cb6e1" d="M4121.056,1079.118h-48.754v-27.701h48.754v27.701Zm0,1727.361h-48.754v55.721h48.754v-55.721Zm0-111.443h-48.754v55.722h48.754v-55.722Zm0-111.443h-48.754v55.721h48.754v-55.721Zm0-111.443h-48.754v55.722h48.754v-55.722Zm0-111.443h-48.754v55.721h48.754v-55.721Zm0-111.443h-48.754v55.722h48.754v-55.722Zm0-111.443h-48.754v55.721h48.754v-55.721Zm0-111.443h-48.754v55.721h48.754v-55.721Zm0-111.443h-48.754v55.721h48.754v-55.721Zm0-111.444h-48.754v55.722h48.754v-55.722Zm0-111.443h-48.754v55.722h48.754v-55.722Zm0-111.443h-48.754v55.722h48.754v-55.722Zm0-111.443h-48.754v55.722h48.754v-55.722Zm0-111.443h-48.754v55.722h48.754v-55.722Zm0-111.443h-48.754v55.722h48.754v-55.722Zm0-111.443h-48.754v55.722h48.754v-55.722Zm0,1783.082h-48.754v3.324h-3.324v48.754h52.078v-52.078Zm-107.527,3.324h-55.449v48.754h55.449v-48.754Zm-110.897,0h-55.449v48.754h55.449v-48.754Zm-110.897,0h-55.449v48.754h55.449v-48.754Zm-110.898,0h-55.449v48.754h55.449v-48.754Zm-110.897,0h-55.449v48.754h55.449v-48.754Zm-110.897,0h-55.449v48.754h55.449v-48.754Zm-110.898,0h-55.449v48.754h55.449v-48.754Zm-110.897,0h-55.449v48.754h55.449v-48.754Zm-110.897,0h-55.449v48.754h55.449v-48.754Zm-110.897,0h-55.449v48.754h55.449v-48.754Zm-110.897,0h-55.449v48.754h55.449v-48.754Zm-110.897,0h-55.449v48.754h55.449v-48.754Zm-110.897,0h-55.449v48.754h55.449v-48.754Zm-110.897,0h-55.449v48.754h55.449v-48.754Zm-110.898,0h-3.324v-3.324h-48.754v52.078h52.078v-48.754Zm-3.324-115.798h-48.754v56.237h48.754v-56.237Zm0-83.939h-48.754v27.701h48.754v-27.701Z" class="color6ccbe1 svgShape"></path><path fill="#5ec1fa" d="M1547.424,119.812c160.075,117.116,368.646,184.396,628.176,199.308V875.523c0,283.163-165.664,540.138-423.571,657.037,0,0-204.605,92.739-204.605,92.739l-204.605-92.739c-257.907-116.898-423.571-373.874-423.571-657.037V319.12c259.53-14.912,468.1-82.192,628.176-199.308Z" class="colorfa895e svgShape"></path><path fill="#53ade1" d="M1547.424,119.812c-160.075,117.116-368.646,184.396-628.176,199.308V875.523c0,283.163,165.664,540.138,423.571,657.037l204.605,92.739V119.812Z" class="colore17b53 svgShape"></path><path fill="#78cafa" d="M1378.536,1432.987c-107.373-48.668-197.891-126.765-261.767-225.848-63.876-99.083-97.639-213.768-97.639-331.656V409.32c211.094-16.654,388.54-73.285,528.294-168.612,139.754,95.327,317.201,151.958,528.294,168.612v466.163c0,117.888-33.763,232.572-97.639,331.656-63.876,99.083-154.393,177.18-261.767,225.848l-168.888,76.55-168.888-76.55Z" class="color78e2fa svgShape"></path><rect width="1285.898" height="2215.018" x="1790.316" y="447.458" fill="#134f72" rx="69.744" ry="69.744" class="color3b6f7a svgShape"></rect><path fill="#f2f2f2" d="M1860.059,2608.731c-8.822,0-15.998-7.177-15.998-15.999V517.202c0-8.821,7.176-15.999,15.998-15.999h294.746c6.267,34.814,36.785,61.309,73.377,61.309h410.168c36.591,0,67.109-26.495,73.376-61.309h294.746c8.822,0,15.998,7.177,15.998,15.999V2592.732c0,8.821-7.176,15.999-15.998,15.999H1860.059Z" class="colorf2f2f2 svgShape"></path><path fill="#333333" d="M2587.192,1811.69h-307.854v-346.788c0-84.875,69.051-153.926,153.926-153.926s153.928,69.051,153.928,153.926v346.788Zm-230.938-76.916h154.022v-269.872c0-42.463-34.547-77.01-77.01-77.01s-77.012,34.547-77.012,77.01v269.872Z" class="color333333 svgShape"></path><rect width="515.33" height="399.794" x="2175.6" y="1718.265" fill="#6cb6e1" rx="73.02" ry="73.02" class="color6ccbe1 svgShape"></rect><path fill="#333333" d="M2485.69,1865.737c0,23.022-14.824,42.549-35.434,49.593v48.352c0,9.387-7.604,16.991-16.991,16.991s-16.991-7.604-16.991-16.991v-48.352c-20.61-7.045-35.434-26.571-35.434-49.593,0-28.948,23.477-52.408,52.425-52.408s52.425,23.459,52.425,52.408Z" class="color333333 svgShape"></path><path fill="#78cafa" d="M4276.414,614.668h-359.471V209.734c0-99.105,80.629-179.734,179.734-179.734s179.736,80.629,179.736,179.734v404.933Zm-269.659-89.812h179.846V209.734c0-49.583-40.339-89.922-89.922-89.922s-89.924,40.339-89.924,89.922v315.121Z" class="color78e2fa svgShape"></path><rect width="601.734" height="466.827" x="3795.811" y="505.579" fill="#5dc0f9" rx="85.263" ry="85.263" class="colorf99e5d svgShape"></rect><path fill="#1c303b" d="M4157.894,677.777c0,26.882-17.309,49.683-41.375,57.909v56.459c0,10.961-8.879,19.84-19.84,19.84s-19.84-8.879-19.84-19.84v-56.459c-24.066-8.226-41.375-31.026-41.375-57.909,0-33.802,27.413-61.195,61.215-61.195s61.215,27.393,61.215,61.195Z" class="color1c353b svgShape"></path><rect width="710.042" height="179.093" x="2078.244" y="2182.226" fill="#333333" rx="89.547" ry="89.547" class="color333333 svgShape"></rect><path fill="#ffffff" d="M2189.347 2232.534c5.118 2.908 6.326 9.755 2.513 14.239l-16.954 19.936.225.675 24.538-4.938c5.81-1.169 11.237 3.273 11.237 9.2v.093c0 5.83-5.26 10.249-11.003 9.244l-24.997-4.375-.225.675 16.94 19.116c3.925 4.429 2.821 11.342-2.289 14.327l-.476.278c-5.044 2.947-11.526.619-13.543-4.864l-8.957-24.358-.45.225-9.071 24.086c-2.069 5.493-8.616 7.76-13.639 4.723l-.22-.133c-4.959-2.999-6.042-9.731-2.274-14.134l16.878-19.717v-.45l-24.235 4.476c-5.768 1.065-11.09-3.363-11.09-9.229h0c0-5.922 5.418-10.364 11.225-9.203l23.649 4.73.225-.45-16.616-19.751c-3.767-4.478-2.562-11.275 2.515-14.184l.621-.356c5.046-2.892 11.48-.544 13.479 4.917l8.775 23.975h.45l8.977-24.096c2.018-5.416 8.405-7.739 13.431-4.883l.358.203zM2367.323 2232.615c5.105 2.909 6.312 9.739 2.514 14.221l-16.841 19.875.225.6 24.241-4.869c5.809-1.167 11.233 3.276 11.233 9.201v.062c0 5.842-5.28 10.264-11.032 9.239l-24.743-4.409-.15.6 16.919 19.316c3.873 4.42 2.776 11.273-2.284 14.263l-.39.23c-5.037 2.977-11.541.669-13.575-4.817l-8.995-24.267-.45.075-9.033 24.176c-2.051 5.49-8.577 7.777-13.607 4.77l-.305-.181c-5.009-2.994-6.1-9.787-2.279-14.198l16.899-19.517-.075-.525-24.489 4.442c-5.76 1.045-11.061-3.38-11.061-9.234v-.031c0-5.924 5.421-10.366 11.229-9.202l23.945 4.799.225-.525-16.729-19.813c-3.783-4.48-2.576-11.294 2.515-14.203l.534-.305c5.039-2.88 11.458-.541 13.463 4.906l8.842 24.015h.45s8.91-24.056 8.91-24.056c2.012-5.431 8.415-7.762 13.447-4.895l.446.254zM2545.298 2232.695c5.091 2.909 6.297 9.722 2.515 14.203l-16.729 19.813.225.525 23.945-4.799c5.808-1.164 11.229 3.278 11.229 9.202v.031c0 5.854-5.301 10.279-11.061 9.234l-24.489-4.442-.075.525 16.899 19.517c3.821 4.412 2.731 11.204-2.279 14.198l-.305.181c-5.03 3.007-11.555.72-13.607-4.77l-9.033-24.176-.45-.075-8.995 24.267c-2.034 5.486-8.538 7.794-13.575 4.817l-.39-.23c-5.06-2.99-6.157-9.842-2.284-14.263l16.919-19.316-.15-.6-24.743 4.409c-5.751 1.025-11.032-3.397-11.032-9.239v-.062c0-5.925 5.423-10.368 11.233-9.201l24.241 4.869.225-.6-16.841-19.875c-3.798-4.482-2.591-11.313 2.514-14.221l.446-.254c5.032-2.867 11.435-.537 13.447 4.895l8.91 24.056h.45s8.842-24.015 8.842-24.015c2.005-5.446 8.424-7.785 13.463-4.906l.534.305zM2677.54 2232.331c5.025-2.855 11.413-.533 13.431 4.883l8.977 24.096h.45s8.775-23.975 8.775-23.975c1.999-5.461 8.433-7.809 13.479-4.917l.621.356c5.078 2.91 6.283 9.706 2.515 14.184l-16.616 19.751.225.45 23.649-4.73c5.807-1.161 11.225 3.28 11.225 9.203h0c0 5.866-5.321 10.294-11.09 9.229l-24.235-4.476v.45s16.878 19.717 16.878 19.717c3.769 4.403 2.686 11.135-2.274 14.134l-.22.133c-5.023 3.037-11.57.77-13.639-4.723l-9.071-24.086-.45-.225-8.957 24.358c-2.016 5.483-8.499 7.811-13.543 4.864l-.476-.278c-5.11-2.986-6.214-9.898-2.289-14.327l16.94-19.116-.225-.675-24.997 4.375c-5.743 1.005-11.003-3.414-11.003-9.244v-.093c0-5.927 5.426-10.37 11.237-9.2l24.538 4.938.225-.675-16.954-19.936c-3.813-4.484-2.605-11.331 2.513-14.239l.358-.203z" class="colorffffff svgShape"></path><path fill="#6cb6e1" d="M2725.69,801.617v398.228c0,61.881,50.162,112.043,112.043,112.043h475.433s224.587,101.373,224.587,101.373v-101.373h28.33c61.881,0,112.043-50.162,112.043-112.043v-398.228c0-61.881-50.162-112.043-112.043-112.043h-728.35c-61.881,0-112.043,50.162-112.043,112.043Z" class="color6ccbe1 svgShape"></path><path fill="#ffffff" d="M2828.107,832.741h539.813c11.493,0,20.81-9.317,20.81-20.81,0-11.493-9.317-20.81-20.81-20.81h-539.813c-11.493,0-20.81,9.317-20.81,20.81,0,11.493,9.317,20.81,20.81,20.81Z" class="colorffffff svgShape"></path><path fill="#78cafa" d="M2828.107,912.022h406.495c11.493,0,20.81-9.317,20.81-20.81s-9.317-20.81-20.81-20.81h-406.495c-11.493,0-20.81,9.317-20.81,20.81,0,11.493,9.317,20.81,20.81,20.81Z" class="color78e2fa svgShape"></path><path fill="#134f72" d="M2828.107,991.303h614.691c11.493,0,20.81-9.317,20.81-20.81s-9.317-20.81-20.81-20.81h-614.691c-11.493,0-20.81,9.317-20.81,20.81,0,11.493,9.317,20.81,20.81,20.81Z" class="color3b6f7a svgShape"></path><path fill="#5dc0f9" d="M2828.107 1070.584h184.04c11.493 0 20.81-9.317 20.81-20.81 0-11.493-9.317-20.81-20.81-20.81h-184.04c-11.493 0-20.81 9.317-20.81 20.81 0 11.493 9.317 20.81 20.81 20.81zM3091.09 1070.584h184.04c11.493 0 20.81-9.317 20.81-20.81 0-11.493-9.317-20.81-20.81-20.81h-184.04c-11.493 0-20.81 9.317-20.81 20.81 0 11.493 9.317 20.81 20.81 20.81z" class="colorf99e5d svgShape"></path><g fill="#000000" class="color000000 svgShape"><path fill="#5996b9" d="M3654.249,1545.777v398.657c0,.122,0,.249-.006,.371-.197,19.849-16.339,35.869-36.235,35.869h-398.657c-19.896,0-36.037-16.02-36.235-35.869-.006-.122-.006-.249-.006-.371v-398.657c0-20.018,16.223-36.24,36.24-36.24h398.657c20.018,0,36.24,16.223,36.24,36.24Z" class="color59a8b9 svgShape"></path><path fill="#1c303b" d="M3654.243,1944.805c-.197,19.849-16.339,35.869-36.235,35.869h-398.657c-19.896,0-36.037-16.02-36.235-35.869,.424-85.141,69.58-154.031,154.82-154.031h161.487c85.24,0,154.396,68.889,154.82,154.031Z" class="color1c353b svgShape"></path><circle cx="3418.679" cy="1647.27" r="126.284" fill="#1c303b" class="color1c353b svgShape"></circle></g><g fill="#000000" class="color000000 svgShape"><path fill="#f2f2f2" d="M3654.249,2161.991v398.657c0,.122,0,.249-.006,.371-.197,19.849-16.339,35.869-36.235,35.869h-398.657c-19.896,0-36.037-16.02-36.235-35.869-.006-.122-.006-.249-.006-.371v-398.657c0-20.018,16.223-36.24,36.24-36.24h398.657c20.018,0,36.24,16.223,36.24,36.24Z" class="colorf2f2f2 svgShape"></path><path fill="#5ec1fa" d="M3654.243,2561.019c-.197,19.849-16.339,35.869-36.235,35.869h-398.657c-19.896,0-36.037-16.02-36.235-35.869,.424-85.141,69.58-154.031,154.82-154.031h161.487c85.24,0,154.396,68.889,154.82,154.031Z" class="colorfa895e svgShape"></path><circle cx="3418.679" cy="2263.484" r="126.284" fill="#5ec1fa" class="colorfa895e svgShape"></circle></g><path fill="#1c303b" d="M1726.007,2263.484l-171.117-98.794v-156.341c0-61.881-50.162-112.043-112.043-112.043H714.497c-61.881,0-112.043,50.162-112.043,112.043v510.271c0,61.881,50.162,112.043,112.043,112.043h728.35c61.881,0,112.043-50.162,112.043-112.043v-156.341l171.117-98.795Z" class="color1c353b svgShape"></path><g fill="#000000" class="color000000 svgShape"><path fill="#ffffff" d="M1450.288,2381.4H707.057v-235.833h743.231v235.833Zm-721.07-22.161h698.909v-191.511H729.218v191.511Z" class="colorffffff svgShape"></path><path fill="#ffffff" d="M1410.398,2341.51H746.947v-156.054h663.451v156.054Z" class="colorffffff svgShape"></path></g></svg>