<svg xmlns="http://www.w3.org/2000/svg" viewBox="0 0 1364 960" id="WrongPassword"><path fill="#e0f4ff" d="M1019.938 389.059c-19.862-8.478-43.248-2.825-55.781 12.485a37.658 37.658 0 0 0-4.406 6.477L921.66 479.07c-5.786 10.795-23.935 7.112-23.935-4.857V173.191c0-11.126-5.046-21.214-13.216-28.512-8.13-7.299-19.42-11.806-31.874-11.806-24.947 0-45.13 18.067-45.13 40.319v215.099c0 6.827-6.195 12.362-13.836 12.362h-.006c-7.641 0-13.835-5.536-13.835-12.362v-263.22c0-22.262-20.201-40.309-45.118-40.309-24.92 0-45.118 18.047-45.118 40.309v263.22c0 6.827-6.196 12.362-13.837 12.362s-13.837-5.536-13.837-12.362V155.326c0-22.194-19.434-41.232-44.272-41.637-25.307-.414-45.962 17.789-45.962 40.301v234.299c0 6.827-6.196 12.362-13.839 12.362-7.64 0-13.836-5.536-13.836-12.362v-177.83c0-22.194-19.434-41.232-44.272-41.638-25.305-.414-45.965 17.788-45.965 40.301v191.53h-.014V532.87c0 125.719 115.117 231.636 255.835 231.33 108.484-.236 201.016-60.913 237.706-146.356l93.822-175.013c3.004-5.617 4.445-11.556 4.445-17.388 0-15.025-9.45-29.443-25.628-36.384z" class="colore0eaff svgShape"></path><path fill="#327399" d="M432.014 830.143a200.293 200.293 0 0 1-13.729-3.601c-.403-.122-.646-.602-.542-1.072.104-.471.51-.751.919-.634a197.608 197.608 0 0 0 13.636 3.578c.41.092.678.553.599 1.031-.07.421-.386.714-.74.714a.586.586 0 0 1-.143-.016zm28.827 4.138a201.072 201.072 0 0 1-14.172-1.147c-.419-.049-.747-.479-.732-.96.015-.482.363-.828.786-.784 4.736.552 9.473.935 14.077 1.141.42.019.769.426.781.909.009.426-.247.77-.596.832a.627.627 0 0 1-.144.009zm33.46 1.47c-4.634.245-9.418.324-14.219.237-.422-.008-.793-.404-.828-.884-.035-.481.275-.859.701-.856 4.77.088 9.522.009 14.124-.234.42-.022.809.349.871.829.053.423-.166.79-.507.886a.658.658 0 0 1-.142.022zm30.24-2.921a200.678 200.678 0 0 1-14.115 1.685c-.421.035-.833-.321-.919-.795-.087-.474.181-.882.605-.923 4.753-.398 9.47-.962 14.02-1.672.415-.065.842.264.956.735.099.415-.08.803-.408.932a.582.582 0 0 1-.139.038zm28.633-6.556a199.916 199.916 0 0 1-13.597 4.045c-.408.105-.878-.176-1.047-.627-.171-.452.02-.899.43-1.011a197.783 197.783 0 0 0 13.505-4.016c.397-.134.877.118 1.073.563.172.392.066.804-.234.987a.67.67 0 0 1-.13.059zm-148.401-4.292a225.212 225.212 0 0 1-13.268-5.458c-.389-.175-.583-.684-.433-1.138.15-.454.587-.681.975-.506a223.166 223.166 0 0 0 13.187 5.426c.397.148.616.644.488 1.108-.103.372-.399.611-.719.611a.702.702 0 0 1-.23-.043zm-26.252-11.793a226.16 226.16 0 0 1-12.643-7.202c-.369-.227-.51-.759-.317-1.189.195-.432.652-.597 1.019-.37a223.008 223.008 0 0 0 12.562 7.156c.38.201.548.722.377 1.165-.126.325-.401.518-.688.518a.66.66 0 0 1-.31-.078zm-24.884-15.302a198.596 198.596 0 0 1-11.749-9.045c-.339-.282-.418-.832-.177-1.228.242-.397.713-.488 1.053-.205a197.714 197.714 0 0 0 11.66 8.976c.356.253.468.795.251 1.21-.143.272-.391.422-.645.422a.665.665 0 0 1-.393-.13zm-22.88-19.114a155.572 155.572 0 0 1-10.316-11.201.988.988 0 0 1 .016-1.245c.298-.338.776-.33 1.067.019a154.044 154.044 0 0 0 10.208 11.082c.318.314.358.87.089 1.242a.713.713 0 0 1-.577.312.7.7 0 0 1-.487-.209zm-19.529-23.662c-2.953-4.546-5.533-9.2-7.669-13.831-.198-.429-.06-.962.307-1.192.366-.232.824-.071 1.022.358 2.099 4.552 4.636 9.128 7.542 13.602.252.387.187.94-.145 1.234a.685.685 0 0 1-.455.179.725.725 0 0 1-.602-.35zm-13.151-29.032c-1.41-5.4-2.257-10.864-2.517-16.241-.023-.485.294-.901.71-.929.427-.04.772.345.796.83.253 5.236 1.079 10.561 2.454 15.826.121.466-.103.957-.501 1.099a.679.679 0 0 1-.22.038c-.324.001-.623-.243-.722-.623zm-.907-31.695c-.409-.097-.672-.562-.59-1.039.915-5.262 2.416-10.54 4.461-15.684.175-.44.623-.632 1.001-.429.378.205.542.728.367 1.169-1.995 5.02-3.459 10.166-4.351 15.294-.072.418-.387.705-.738.705a.59.59 0 0 1-.15-.016zm11.225-29.707c-.339-.284-.416-.835-.172-1.229.859-1.395 1.77-2.799 2.71-4.171a78.034 78.034 0 0 1 6.504-8.229c.302-.335.78-.321 1.067.032a.988.988 0 0 1-.028 1.245 76.557 76.557 0 0 0-6.364 8.051 103.711 103.711 0 0 0-2.664 4.1.727.727 0 0 1-.613.367.69.69 0 0 1-.44-.166zm19.797-22.674c-.236-.4-.15-.948.193-1.224 3.643-2.932 7.691-5.793 12.033-8.505.367-.229.824-.069 1.021.361.197.429.059.962-.309 1.191-4.292 2.681-8.292 5.508-11.888 8.402a.681.681 0 0 1-.428.156c-.24 0-.476-.133-.622-.381zm24.517-15.681c-.166-.446.01-.964.393-1.158a206.723 206.723 0 0 1 13.091-6.025c.392-.166.824.074.965.531.142.457-.062.962-.454 1.127a206.716 206.716 0 0 0-13.003 5.983.664.664 0 0 1-.299.072c-.291.001-.569-.198-.693-.53zm26.338-11.248c-.122-.464.103-.957.501-1.098a320.24 320.24 0 0 1 13.533-4.475c.403-.124.816.158.922.628.106.47-.135.951-.537 1.075a320.463 320.463 0 0 0-13.476 4.454.665.665 0 0 1-.221.039c-.324.001-.623-.244-.722-.623zm27.124-8.427c-.093-.473.161-.946.567-1.055a462.08 462.08 0 0 1 13.746-3.438c.407-.095.806.213.888.69.082.477-.183.941-.591 1.036a458.59 458.59 0 0 0-13.706 3.429.66.66 0 0 1-.169.022c-.345.001-.656-.276-.735-.684zm27.513-6.518c-.073-.478.201-.936.611-1.02a651.749 651.749 0 0 1 13.859-2.71c.412-.068.798.252.863.733.065.48-.216.931-.627 1.008a643.087 643.087 0 0 0-13.831 2.703.683.683 0 0 1-.133.014c-.359-.002-.677-.301-.742-.728zm27.725-5.158c-.058-.482.229-.926.642-.995a886.474 886.474 0 0 1 13.925-2.173c.411-.056.791.28.843.762.053.483-.24.924-.654.985a861.114 861.114 0 0 0-13.904 2.169.552.552 0 0 1-.107.009c-.369.001-.692-.317-.745-.757zm27.85-4.147c-.047-.483.25-.919.664-.974 4.57-.608 9.268-1.201 13.964-1.765.409-.053.786.301.828.785.043.484-.259.917-.673.967-4.69.563-9.383 1.156-13.948 1.763a.633.633 0 0 1-.086.006c-.378-.002-.705-.333-.749-.782zm27.925-3.382c-.039-.484.266-.913.681-.959 4.624-.503 9.288-.987 13.988-1.451.423-.043.781.318.816.802.035.485-.273.91-.688.952-4.697.464-9.357.948-13.975 1.451a.86.86 0 0 1-.071.003c-.386.001-.714-.342-.751-.798zm27.972-2.79c-.032-.485.279-.908.694-.946 4.637-.418 9.305-.821 14.003-1.208.408-.016.776.33.806.816.029.485-.283.906-.699.94-4.694.387-9.36.79-13.993 1.208l-.059.002c-.391.001-.722-.349-.752-.812zm28.001-2.328c-.027-.486.288-.905.704-.936 4.648-.352 9.319-.692 14.013-1.021.402-.038.773.342.798.827.025.485-.292.902-.708.932-4.691.329-9.36.667-14.005 1.019l-.049.002c-.394 0-.727-.358-.753-.823zm28.022-1.971c-.023-.486.296-.901.712-.929 4.656-.301 9.33-.594 14.019-.877.424-.037.771.347.792.833s-.298.9-.715.925c-4.687.283-9.359.576-14.013.877l-.042.001c-.398.001-.731-.361-.753-.83zm28.033-1.703c-.02-.485.301-.899.717-.922 4.663-.263 9.337-.52 14.022-.772.412-.055.769.353.788.839.019.485-.303.898-.719.919-4.682.251-9.356.508-14.018.772l-.037.001c-.4.001-.733-.366-.753-.837zm28.01-1.506c-.018-.486.304-.898.721-.918 4.668-.239 9.343-.471 14.022-.7.406-.033.768.356.785.843.017.486-.306.896-.723.916-4.678.229-9.352.462-14.019.701l-.033.001c-.401-.001-.735-.371-.753-.843zm28.071-1.381c-.017-.485.307-.896.723-.915 4.675-.222 9.351-.443 14.026-.66.432-.041.768.359.784.844.017.486-.307.895-.724.915-4.674.218-9.349.438-14.024.661l-.031.001c-.403-.001-.737-.373-.754-.846zm28.049-1.311c-.016-.485.307-.895.724-.914l14.025-.65c.404-.053.767.358.784.844.016.486-.307.896-.724.915l-14.025.65-.03.001c-.404.001-.738-.371-.754-.846zm28.048-1.305c-.017-.486.307-.896.724-.915 4.685-.221 9.36-.445 14.023-.671.434-.067.768.356.786.843.017.486-.307.896-.723.916-4.663.226-9.339.449-14.025.671l-.031.001c-.403-.001-.737-.372-.754-.845zm28.047-1.361c-.018-.486.305-.896.722-.917 4.69-.236 9.364-.477 14.021-.722.406-.036.769.354.787.839.019.486-.303.898-.72.919-4.657.245-9.333.486-14.024.722l-.033.001c-.401 0-.735-.369-.753-.842zm28.044-1.481c-.02-.486.301-.899.717-.922a3527.1 3527.1 0 0 0 14.017-.811c.427-.04.771.348.792.835.021.485-.299.899-.715.924-4.65.279-9.326.548-14.022.811l-.037.001c-.399 0-.733-.366-.752-.838zm28.036-1.673c-.023-.485.296-.9.712-.927 4.701-.303 9.372-.616 14.011-.939.422-.025.774.342.798.826.025.486-.292.902-.708.932-4.642.323-9.315.636-14.017.939l-.042.001c-.399 0-.732-.363-.754-.832zm28.023-1.954c-.027-.485.288-.905.704-.936a1922.2 1922.2 0 0 0 13.999-1.118c.412-.026.776.33.807.815.03.485-.283.907-.699.941-4.63.386-9.301.759-14.009 1.118l-.05.002c-.393.001-.725-.356-.752-.822zm28.004-2.334c-.033-.485.277-.909.692-.948 4.711-.433 9.372-.886 13.983-1.357.419-.041.781.315.817.8.036.485-.271.912-.686.954-4.615.471-9.281.924-13.996 1.36l-.06.002c-.388 0-.719-.35-.75-.811zm27.969-2.854c-.04-.485.263-.915.678-.962a1083.7 1083.7 0 0 0 13.955-1.683c.414-.064.786.295.832.78.045.483-.254.917-.668.97-4.502.576-9.203 1.142-13.973 1.685a.613.613 0 0 1-.074.005c-.384 0-.712-.341-.75-.795zm27.911-3.551c-.051-.483.243-.922.656-.982 4.75-.683 9.429-1.399 13.908-2.127.409-.067.793.27.852.751.057.482-.23.927-.643.994a774.982 774.982 0 0 1-13.932 2.129.591.591 0 0 1-.093.007c-.376 0-.701-.327-.748-.772zm27.809-4.511c-.065-.479.215-.931.627-1.008a532.787 532.787 0 0 0 13.821-2.746c.411-.081.803.231.878.709.075.479-.197.936-.606 1.025a545.82 545.82 0 0 1-13.856 2.753.694.694 0 0 1-.12.01c-.364 0-.685-.308-.744-.743zm27.619-5.864c-.086-.476.174-.942.582-1.043a354.888 354.888 0 0 0 13.652-3.656c.407-.12.813.17.914.642.1.471-.146.949-.55 1.066a356.253 356.253 0 0 1-13.704 3.67.608.608 0 0 1-.157.019c-.348 0-.662-.284-.737-.698zm27.231-7.892c-.119-.466.109-.956.508-1.095a213.002 213.002 0 0 0 13.274-5.092c.389-.162.824.069.967.526.143.458-.059.963-.451 1.129a215.101 215.101 0 0 1-13.359 5.125.654.654 0 0 1-.216.037c-.326-.001-.626-.248-.723-.63zm26.308-11.171c-.175-.443-.009-.965.369-1.168 4.461-2.402 8.578-4.954 12.235-7.585.355-.254.819-.125 1.038.288.219.414.109.956-.246 1.212-3.708 2.668-7.878 5.253-12.395 7.684a.663.663 0 0 1-.315.081c-.286-.001-.559-.19-.686-.512zm23.56-17.024c-.28-.361-.256-.917.052-1.244 3.566-3.771 6.502-7.801 8.725-11.982.22-.413.686-.54 1.039-.284.354.257.463.8.243 1.213-2.297 4.32-5.323 8.477-8.994 12.358a.693.693 0 0 1-.506.228.711.711 0 0 1-.559-.289zm14.472-26.957c-.403-.125-.642-.608-.535-1.077a107.572 107.572 0 0 0 2.397-15.943c.036-.484.399-.846.816-.801.415.041.723.468.687.953a109.595 109.595 0 0 1-2.442 16.244c-.09.393-.395.654-.729.654a.627.627 0 0 1-.194-.03zm1.836-33.17a113.027 113.027 0 0 0-2.385-15.923c-.105-.471.136-.951.54-1.074.406-.126.816.16.92.631a114.882 114.882 0 0 1 2.428 16.211c.037.484-.269.911-.684.955a.79.79 0 0 1-.068.003c-.387 0-.716-.344-.751-.803zm-6.889-31.237a134.886 134.886 0 0 0-6.29-14.46c-.212-.418-.092-.958.267-1.205.358-.249.82-.109 1.033.311a137.056 137.056 0 0 1 6.378 14.665c.164.447-.015.964-.398 1.154a.664.664 0 0 1-.296.071c-.292-.001-.571-.202-.694-.536zm-14.034-27.957a167.197 167.197 0 0 0-8.908-12.503c-.281-.359-.259-.916.048-1.244.305-.327.784-.303 1.066.056a168.917 168.917 0 0 1 9.001 12.634c.25.389.183.94-.15 1.232a.685.685 0 0 1-.453.177.724.724 0 0 1-.604-.352zm-18.748-24.039a203.704 203.704 0 0 0-10.587-10.615c-.325-.304-.379-.858-.119-1.237.259-.38.734-.441 1.061-.139a204.992 204.992 0 0 1 10.671 10.7c.306.33.324.888.041 1.244a.709.709 0 0 1-.554.282.698.698 0 0 1-.513-.235zm-21.78-20.363a240.447 240.447 0 0 0-11.69-8.933c-.355-.255-.466-.797-.248-1.211.219-.415.684-.544 1.038-.289a242.196 242.196 0 0 1 11.764 8.988c.342.279.425.828.187 1.227-.147.244-.381.376-.62.376a.684.684 0 0 1-.431-.158zm-23.789-17.101a276.007 276.007 0 0 0-12.44-7.447c-.375-.212-.532-.738-.351-1.176.182-.438.633-.622 1.008-.41a279.278 279.278 0 0 1 12.505 7.486c.367.233.502.768.302 1.194-.137.294-.396.46-.663.46a.685.685 0 0 1-.361-.107zm-25.167-14.215a310.676 310.676 0 0 0-12.966-6.121c-.39-.173-.585-.682-.437-1.136.148-.455.586-.68.973-.51a313.571 313.571 0 0 1 13.025 6.148c.383.193.56.71.395 1.157-.122.334-.401.533-.693.533a.674.674 0 0 1-.297-.071zm-26.136-11.63a337.014 337.014 0 0 0-13.341-4.917c-.4-.139-.628-.628-.51-1.095.118-.466.536-.736.938-.594a341.303 341.303 0 0 1 13.394 4.937c.395.155.607.655.475 1.116-.106.368-.4.6-.715.6a.684.684 0 0 1-.241-.047zm-26.829-9.27a369.633 369.633 0 0 0-13.607-3.81c-.407-.105-.663-.576-.573-1.051.09-.475.494-.771.9-.668a370.426 370.426 0 0 1 13.658 3.824c.403.122.646.602.542 1.073-.087.397-.394.66-.73.66a.74.74 0 0 1-.19-.028zm-27.316-7.098a392.945 392.945 0 0 0-13.792-2.778c-.411-.076-.693-.526-.629-1.007.064-.48.449-.806.862-.734 4.625.846 9.281 1.784 13.838 2.787.409.091.679.552.601 1.029-.068.423-.385.718-.74.718a.674.674 0 0 1-.14-.015zm-27.651-5.063a417.896 417.896 0 0 0-13.912-1.808c-.415-.046-.718-.477-.678-.961.04-.485.419-.846.824-.791 4.662.525 9.357 1.135 13.955 1.813.414.061.706.501.654.984-.048.445-.373.771-.748.771a.777.777 0 0 1-.095-.008zm-27.863-3.148a436.242 436.242 0 0 0-13.977-.885c-.417-.019-.74-.429-.724-.915.017-.486.375-.901.785-.844 4.685.221 9.402.519 14.02.887.416.033.729.453.701.938-.027.466-.359.821-.752.821a.904.904 0 0 1-.053-.002zM811.936 275.901c.412 0 .749-.387.755-.869.005-.486-.328-.885-.744-.892a458.66 458.66 0 0 0-7.053-.055c-.417 0-.755.394-.755.881 0 .486.338.88.755.88a455.927 455.927 0 0 1 7.042.055z" class="color325899 svgShape"></path><path fill="#246185" d="m815.065 276.417-23.186 1.724 6.935-13.747z" class="color244885 svgShape"></path><path fill="#3a86b3" d="m793.703 282.466-30.236-10.261 37.44-2.123zM763.437 272.162l46.461-25.371-6.597 12.589z" class="color3a67b3 svgShape"></path><path fill="#297099" d="m763.467 272.205 37.52-2.006 14.078 6.218-11.763-17.236z" class="color295399 svgShape"></path><path fill="#509bc7" d="M960.013 747.178c2.929-1.941 4.285-5.761 3.798-9.236-.487-3.475-2.593-6.576-5.279-8.834-2.687-2.258-5.927-3.758-9.213-4.997-5.436-2.052-11.309-3.459-17.05-2.964a166.342 166.342 0 0 1 18.272-17.89c.595-.499 1.199-.987 1.8-1.478l10.716 14.774c2.383 3.286 4.852 6.653 8.291 8.812s8.125 2.85 11.514.605c2.929-1.941 4.285-5.761 3.798-9.236-.487-3.475-2.593-6.576-5.28-8.834-2.686-2.258-5.927-3.758-9.212-4.997-5.607-2.116-11.68-3.549-17.593-2.913a169.549 169.549 0 0 1 23.695-15.65l11.433 14.552c2.508 3.192 5.104 6.462 8.624 8.487 3.52 2.026 8.229 2.537 11.529.163 2.852-2.051 4.061-5.921 3.44-9.374-.62-3.453-2.844-6.471-5.615-8.625-2.771-2.154-6.067-3.528-9.398-4.641-5.332-1.782-11.05-2.95-16.596-2.377a166.896 166.896 0 0 1 18.804-8.305 160.844 160.844 0 0 1 5.755-1.988l12.251 14.579c2.611 3.108 5.314 6.291 8.899 8.2 3.584 1.909 8.308 2.265 11.528-.215 2.783-2.144 3.863-6.051 3.13-9.482-.733-3.431-3.055-6.375-5.896-8.436-2.841-2.061-6.18-3.327-9.546-4.33-4.809-1.433-9.907-2.363-14.874-2.011a159.958 159.958 0 0 1 20.164-4.417l17.272 6.811c3.778 1.49 7.673 3.003 11.737 2.977 4.064-.026 8.391-1.959 10.043-5.67 1.428-3.208.518-7.155-1.762-9.823-2.28-2.667-5.725-4.15-9.207-4.612-3.482-.462-7.023.014-10.463.732-6.339 1.323-12.707 3.607-17.502 7.903-.023.002-.043 0-.066.004a161.379 161.379 0 0 0-21.45 4.743c4.213-3.086 7.58-7.372 10.342-11.855 1.842-2.99 3.491-6.159 4.238-9.589.746-3.43.519-7.172-1.219-10.22-1.738-3.048-5.144-5.243-8.648-4.988-4.054.295-7.34 3.708-8.743 7.519s-1.299 7.987-1.178 12.044l.554 18.539a166.83 166.83 0 0 0-24.8 10.366c3.619-4.138 5.972-9.386 7.619-14.68 1.042-3.353 1.853-6.83 1.724-10.337-.129-3.507-1.279-7.075-3.721-9.595-2.441-2.521-6.287-3.802-9.62-2.686-3.854 1.291-6.191 5.41-6.603 9.449-.412 4.04.725 8.057 1.851 11.956l5.141 17.808c-.247.136-.498.266-.745.402a172.18 172.18 0 0 0-23.094 15.349c3.431-5.116 4.912-11.41 5.515-17.582.341-3.493.431-7.061-.406-10.468-.837-3.408-2.687-6.668-5.589-8.642-2.902-1.975-6.93-2.45-9.967-.684-3.513 2.043-4.968 6.549-4.553 10.587.415 4.038 2.343 7.741 4.237 11.331l8.923 16.924-.3.246-.173-.054.089.122a169.167 169.167 0 0 0-19.498 18.648c1.026-5.437.421-11.193-.818-16.637-.794-3.487-1.855-6.966-3.761-9.992s-4.742-5.586-8.181-6.566c-3.439-.98-7.484-.15-9.85 2.531-2.738 3.101-2.694 7.924-.994 11.695 1.7 3.772 4.755 6.735 7.739 9.599l12.715 12.208.314.433a161.122 161.122 0 0 0-17.001 24.368c-.518.911.807 1.894 1.331.97a160.873 160.873 0 0 1 16.668-23.962l10.166 14.016c2.383 3.285 4.852 6.653 8.291 8.812 3.44 2.163 8.126 2.854 11.514.608zM466.049 756.815c-2.989-1.848-4.464-5.623-4.086-9.112.378-3.488 2.385-6.654 4.999-8.996 2.615-2.342 5.806-3.942 9.051-5.285 5.369-2.222 11.194-3.813 16.949-3.498a166.34 166.34 0 0 0-18.825-17.307c-.61-.48-1.229-.949-1.846-1.421l-10.247 15.103c-2.279 3.359-4.64 6.802-8.01 9.068s-8.032 3.104-11.489.967c-2.989-1.848-4.464-5.623-4.086-9.112.377-3.488 2.385-6.654 4.999-8.996 2.614-2.342 5.806-3.942 9.051-5.285 5.538-2.291 11.563-3.915 17.493-3.464a169.673 169.673 0 0 0-24.175-14.898l-10.97 14.904c-2.406 3.269-4.899 6.619-8.353 8.754-3.454 2.135-8.145 2.794-11.518.526-2.916-1.961-4.245-5.79-3.733-9.262.511-3.471 2.639-6.558 5.341-8.797 2.702-2.24 5.953-3.717 9.247-4.934 5.274-1.948 10.952-3.296 16.513-2.897a166.942 166.942 0 0 0-19.056-7.71 160.11 160.11 0 0 0-5.815-1.806l-11.787 14.956c-2.512 3.188-5.114 6.455-8.637 8.475-3.522 2.021-8.232 2.525-11.529.148-2.849-2.056-4.052-5.926-3.426-9.379.625-3.453 2.853-6.468 5.628-8.617 2.775-2.15 6.073-3.519 9.405-4.627 4.761-1.584 9.828-2.673 14.804-2.478a159.934 159.934 0 0 0-20.293-3.781l-17.049 7.35c-3.73 1.608-7.575 3.243-11.638 3.344-4.063.101-8.448-1.694-10.216-5.351-1.528-3.162-.742-7.135 1.453-9.873 2.195-2.738 5.592-4.328 9.058-4.899 3.466-.571 7.02-.207 10.481.403 6.377 1.123 12.814 3.206 17.741 7.349.023.001.043-.002.066.002a161.461 161.461 0 0 1 21.588 4.067c-4.308-2.952-7.808-7.13-10.71-11.524-1.935-2.931-3.683-6.046-4.537-9.451-.854-3.405-.744-7.152.897-10.254 1.641-3.102 4.977-5.402 8.487-5.257 4.061.167 7.453 3.475 8.975 7.241s1.549 7.942 1.556 12.001l.029 18.547a166.893 166.893 0 0 1 25.113 9.582c-3.747-4.023-6.264-9.193-8.076-14.434-1.147-3.318-2.067-6.768-2.048-10.277.018-3.509 1.056-7.111 3.417-9.707 2.361-2.596 6.165-3.998 9.53-2.987 3.893 1.169 6.358 5.213 6.897 9.237.539 4.025-.472 8.075-1.474 12.009l-4.579 17.961c.251.128.506.25.758.379a172.115 172.115 0 0 1 23.565 14.616c-3.59-5.006-5.268-11.25-6.065-17.4-.451-3.481-.653-7.044.077-10.476.73-3.432 2.477-6.749 5.315-8.814 2.839-2.065 6.849-2.667 9.941-.996 3.576 1.932 5.171 6.39 4.883 10.439-.288 4.049-2.099 7.811-3.879 11.459l-8.387 17.196.307.236.171-.06-.085.125a169.106 169.106 0 0 1 20.074 18.026c-1.196-5.402-.773-11.174.295-16.654.684-3.51 1.636-7.02 3.445-10.105 1.809-3.085 4.564-5.732 7.971-6.82 3.407-1.087 7.475-.385 9.925 2.22 2.834 3.014 2.942 7.835 1.361 11.658-1.581 3.823-4.541 6.881-7.434 9.838l-12.325 12.601-.3.443a161.157 161.157 0 0 1 17.759 23.822c.546.895-.747 1.918-1.3 1.012a160.867 160.867 0 0 0-17.413-23.427l-9.721 14.329c-2.279 3.359-4.64 6.802-8.01 9.068-3.369 2.267-8.031 3.105-11.488.967z" class="color507cc7 svgShape"></path><path fill="#134f72" d="M775.884 305.713h-128.39c-48.142 0-87.17 39.027-87.17 87.17v183.124h41.642V398.058c0-28.002 22.701-50.702 50.703-50.702h118.039c28.003 0 50.703 22.701 50.703 50.703v177.948h41.642V392.883c0-48.143-39.027-87.17-87.169-87.17z" class="color1f4380 svgShape"></path><path fill="#57c1ff" d="M465.721 562.368v66.905c0 135.844 110.124 245.967 245.968 245.967s245.968-110.124 245.968-245.968v-66.904c0-39.974-32.406-72.38-72.38-72.38H538.102c-39.975-.001-72.381 32.405-72.381 72.38z" class="colorffc257 svgShape"></path><circle cx="719.93" cy="671.871" r="102.606" fill="#ffffff" class="colorffffff svgShape"></circle><circle cx="719.93" cy="671.872" r="89.327" fill="#47bbff" transform="rotate(-22.5 719.897 671.845)" class="colorffbc47 svgShape"></circle><path fill="#ffffff" d="M749.662 641.899c0-16.959-14.199-30.602-31.357-29.689-15.273.813-27.655 13.526-28.094 28.815-.322 11.158 5.528 20.95 14.365 26.3l-5.397 68.062a4.801 4.801 0 0 0 4.786 5.18h31.93a4.8 4.8 0 0 0 4.786-5.18l-5.396-68.062c8.606-5.209 14.377-14.632 14.377-25.426z" class="colorffffff svgShape"></path><path fill="#45a2d9" d="M1024.797 862.577 923.289 686.76c-3.192-5.529-11.172-5.529-14.364 0L807.417 862.577c-3.192 5.529.798 12.44 7.182 12.44h203.016c6.384 0 10.374-6.911 7.182-12.44z" class="colord94559 svgShape"></path><path fill="#ffffff" d="m1008.871 856.756-88.504-153.293c-1.893-3.279-6.627-3.279-8.52 0l-88.504 153.293c-1.893 3.279.473 7.378 4.26 7.378h177.008c3.787.001 6.153-4.099 4.26-7.378z" class="colorffffff svgShape"></path><path fill="#dde9f0" d="m1008.871 856.756-88.504-153.293c-1.893-3.279-6.627-3.279-8.52 0l-.474.821 85.097 147.392c1.893 3.279-.473 7.378-4.26 7.378H822.689c-.083 2.628 1.986 5.08 4.914 5.08h177.008c3.787.001 6.153-4.099 4.26-7.378z" class="colordde4f0 svgShape"></path><path fill="#dde9f0" d="M916.107 824.921c-4.557 0-8.428-3.557-8.812-8.099l-5.584-66.076a8.864 8.864 0 0 1 2.301-6.728 8.866 8.866 0 0 1 6.511-2.859h11.168a8.866 8.866 0 0 1 6.511 2.859 8.864 8.864 0 0 1 2.301 6.728l-5.584 66.076c-.384 4.541-4.255 8.099-8.812 8.099z" class="colordde4f0 svgShape"></path><path fill="#45a2d9" d="M921.691 744.021h-11.168a5.98 5.98 0 0 0-5.958 6.483l5.584 66.076a5.98 5.98 0 0 0 11.916 0l5.584-66.076a5.98 5.98 0 0 0-5.958-6.483z" class="colord94559 svgShape"></path><path fill="#dde9f0" d="M916.107 848.184c-5.518 0-10.008-4.49-10.008-10.008 0-5.518 4.489-10.008 10.008-10.008s10.008 4.49 10.008 10.008c0 5.519-4.49 10.008-10.008 10.008z" class="colordde4f0 svgShape"></path><path fill="#45a2d9" d="M908.963 838.177a7.144 7.144 0 1 1 14.288 0 7.144 7.144 0 0 1-14.288 0zM541.403 450.208c-13.541-2.958-30.205-10.387-47.232-21.471l-42.581.079-42.581.079c-16.985 11.148-33.622 18.639-47.152 21.648 5.025 9.552 15.283 32.301 12.34 61.814-1.761 17.655-7.609 31.337-12.15 39.873.011 5.979.669 37.781 26.413 63.427 16.276 16.214 38.737 26.22 63.528 26.175 24.79-.047 47.214-10.137 63.429-26.412 25.648-25.743 26.187-57.546 26.176-63.526-4.573-8.52-10.472-22.179-12.299-39.828-3.053-29.5 7.121-52.287 12.109-61.858z" class="colord94559 svgShape"></path><path fill="#ffffff" d="M451.969 631.371c-21.184.039-41.117-8.174-56.124-23.125-19.698-19.623-22.864-43.658-23.278-53.578 6.561-13.041 10.61-26.912 12.043-41.273 2.248-22.543-2.377-41.815-8.172-56.223 11.258-3.982 23.508-10.086 35.667-17.82l79.012-.148c12.188 7.688 24.461 13.747 35.734 17.687-5.741 14.43-10.294 33.718-7.963 56.253 1.486 14.357 5.587 28.212 12.197 41.227-.38 9.924-3.459 33.972-23.079 53.665-14.952 15.008-34.852 23.295-56.037 23.335z" class="colorffffff svgShape"></path><path fill="#ffffff" d="M451.953 622.782c-19.091.035-37.053-7.366-50.577-20.839-17.148-17.083-20.376-37.988-20.923-47.238 6.203-12.627 10.048-26.044 11.43-39.9 1.746-17.5-.45-34.845-6.526-51.623 9.576-3.75 19.764-8.964 29.771-15.245l72.999-.136c10.03 6.244 20.237 11.42 29.827 15.134-6.014 16.8-8.144 34.153-6.335 51.647 1.435 13.852 5.329 27.255 11.58 39.857-.515 9.254-3.668 30.175-20.747 47.316-13.475 13.522-31.408 20.99-50.499 21.027z" class="colorffffff svgShape"></path><path fill="#45a2d9" d="m421.153 520.179-15.26 23.089 39.732 23.23 52.028-56.409-23.242-17.591-29.747 48z" class="colord94559 svgShape"></path><linearGradient id="a" x1="924.42" x2="941.958" y1="375.958" y2="383.103" gradientUnits="userSpaceOnUse"><stop offset="0" stop-color="#66c7ff" class="stopColorff9666 svgShape"></stop><stop offset="1" stop-color="#2d8cc4" class="stopColorc42d40 svgShape"></stop></linearGradient><path fill="url(#a)" d="M937.616 377.584c.386.623.509 1.374.328 2.114a2.754 2.754 0 0 1-1.922 2.009l-9.314 2.716a2.751 2.751 0 0 1-2.7-.66 2.753 2.753 0 0 1-.778-2.668l2.304-9.424a2.752 2.752 0 0 1 1.922-2.009 2.752 2.752 0 0 1 2.7.661l7.009 6.707c.177.169.328.355.451.554zm-12.189 4.475a.619.619 0 0 0 .097.12.576.576 0 0 0 .571.14l9.313-2.716a.58.58 0 0 0 .407-.425.574.574 0 0 0-.165-.564l-7.009-6.708a.577.577 0 0 0-.571-.14.579.579 0 0 0-.407.425l-2.304 9.424a.572.572 0 0 0 .068.444z"></path><linearGradient id="b" x1="267.207" x2="284.745" y1="561.07" y2="568.215" gradientUnits="userSpaceOnUse"><stop offset="0" stop-color="#66c7ff" class="stopColorff9666 svgShape"></stop><stop offset="1" stop-color="#2d8cc4" class="stopColorc42d40 svgShape"></stop></linearGradient><path fill="url(#b)" d="M280.403 562.696c.386.623.509 1.374.328 2.114a2.754 2.754 0 0 1-1.922 2.009l-9.314 2.716a2.751 2.751 0 0 1-2.7-.66 2.753 2.753 0 0 1-.778-2.668l2.304-9.424a2.752 2.752 0 0 1 1.922-2.009 2.752 2.752 0 0 1 2.7.661l7.009 6.707c.177.169.328.355.451.554zm-12.189 4.475a.619.619 0 0 0 .097.12.576.576 0 0 0 .571.14l9.313-2.716a.58.58 0 0 0 .407-.425.574.574 0 0 0-.165-.564l-7.009-6.708a.577.577 0 0 0-.571-.14.579.579 0 0 0-.407.425l-2.304 9.424a.564.564 0 0 0 .068.444z"></path><linearGradient id="c" x1="429.572" x2="440.412" y1="783.514" y2="794.909" gradientUnits="userSpaceOnUse"><stop offset="0" stop-color="#4fbeff" class="stopColorffdd4f svgShape"></stop><stop offset="1" stop-color="#5cc3ff" class="stopColorff8f5c svgShape"></stop></linearGradient><path fill="url(#c)" d="m437.444 788.835 3.426-3.426a1.99 1.99 0 1 0-2.816-2.816l-3.426 3.426-3.426-3.426a1.99 1.99 0 1 0-2.816 2.816l3.426 3.426-3.42 3.42a1.99 1.99 0 1 0 2.816 2.816l3.42-3.42 3.42 3.42a1.988 1.988 0 0 0 2.816 0 1.99 1.99 0 0 0 0-2.816l-3.42-3.42z"></path><linearGradient id="d" x1="1036.731" x2="1047.571" y1="769.16" y2="780.556" gradientUnits="userSpaceOnUse"><stop offset="0" stop-color="#4fbeff" class="stopColorffdd4f svgShape"></stop><stop offset="1" stop-color="#5cc3ff" class="stopColorff8f5c svgShape"></stop></linearGradient><path fill="url(#d)" d="m1044.602 774.481 3.426-3.426a1.99 1.99 0 1 0-2.816-2.816l-3.426 3.426-3.426-3.426a1.99 1.99 0 1 0-2.816 2.816l3.426 3.426-3.42 3.42a1.99 1.99 0 1 0 2.816 2.816l3.42-3.42 3.42 3.42c.389.389.898.583 1.408.583a1.99 1.99 0 0 0 1.408-3.399l-3.42-3.42z"></path><linearGradient id="e" x1="417.491" x2="433.14" y1="382.344" y2="382.344" gradientUnits="userSpaceOnUse"><stop offset="0" stop-color="#5d9dc2" class="stopColor5d64c2 svgShape"></stop><stop offset="1" stop-color="#195578" class="stopColor251978 svgShape"></stop></linearGradient><path fill="url(#e)" d="M425.315 390.169c-4.315 0-7.825-3.51-7.825-7.825s3.51-7.825 7.825-7.825c4.314 0 7.825 3.51 7.825 7.825s-3.51 7.825-7.825 7.825zm0-13.201a5.383 5.383 0 0 0-5.376 5.376 5.383 5.383 0 0 0 5.376 5.376 5.383 5.383 0 0 0 5.376-5.376 5.382 5.382 0 0 0-5.376-5.376z"></path><linearGradient id="f" x1="1082.415" x2="1098.064" y1="593.389" y2="593.389" gradientUnits="userSpaceOnUse"><stop offset="0" stop-color="#5d9dc2" class="stopColor5d64c2 svgShape"></stop><stop offset="1" stop-color="#195578" class="stopColor251978 svgShape"></stop></linearGradient><path fill="url(#f)" d="M1090.239 601.214c-4.314 0-7.825-3.51-7.825-7.825s3.51-7.825 7.825-7.825 7.825 3.51 7.825 7.825c0 4.314-3.51 7.825-7.825 7.825zm0-13.201a5.383 5.383 0 0 0-5.376 5.376c0 2.964 2.412 5.376 5.376 5.376s5.376-2.412 5.376-5.376a5.381 5.381 0 0 0-5.376-5.376z"></path></svg>