<svg width="1271" height="1327" viewBox="0 0 1271 1327" fill="none" xmlns="http://www.w3.org/2000/svg">
<circle cx="635.5" cy="691.5" r="608" fill="#0F4C75" stroke="#3987B2" stroke-width="55"/>
<path d="M616.4 1047C552.933 1047 497.733 1035.53 450.8 1012.6C403.867 989.133 367.867 956.067 342.8 913.4C317.733 870.733 305.2 821.133 305.2 764.6C305.2 686.2 319.867 616.6 349.2 555.8C379.067 495 419.333 448.067 470 415C520.667 381.4 576.933 364.6 638.8 364.6C696.4 364.6 740.133 379.533 770 409.4C799.867 438.733 814.8 477.667 814.8 526.2C814.8 558.733 808.933 584.867 797.2 604.6C786 624.333 769.733 634.2 748.4 634.2C733.467 634.2 721.733 630.733 713.2 623.8C704.667 616.867 700.4 606.733 700.4 593.4C700.4 588.6 701.467 579.8 703.6 567C706.8 551 708.4 538.2 708.4 528.6C708.4 480.067 682.533 455.8 630.8 455.8C595.6 455.8 562 467.267 530 490.2C498 513.133 472.133 547 452.4 591.8C432.667 636.067 422.8 688.867 422.8 750.2C422.8 814.2 440.667 863.8 476.4 899C512.133 933.667 564.933 951 634.8 951C669.467 951 704.4 946.733 739.6 938.2C775.333 929.133 814.8 915.533 858 897.4C866 894.2 872.667 892.6 878 892.6C886.533 892.6 892.933 895.8 897.2 902.2C901.467 908.6 903.6 916.867 903.6 927C903.6 959.533 886 983.533 850.8 999C812.933 1015.53 773.467 1027.8 732.4 1035.8C691.867 1043.27 653.2 1047 616.4 1047Z" fill="#BBE1FA"/>
<g clip-path="url(#clip0_309_148)">
<path d="M694.427 247.922L910.058 389.228L847.508 484.679L631.877 343.373L694.427 247.922Z" fill="#2F2F2F"/>
<path d="M665.305 292.362C681.716 317.458 698.271 343.052 713.93 368.731C723.662 384.703 734.681 396.604 747.634 405.092C757.078 411.28 767.671 415.664 779.163 418.111C788.191 420.055 797.345 421.24 806.21 422.404C812.003 423.17 817.476 423.861 822.957 424.794C829.065 425.8 835.187 426.782 841.295 427.788C851.913 429.461 862.524 431.096 873.174 432.722C875.715 433.108 878.24 433.517 880.805 433.919L856.683 470.729C851.297 478.948 846.084 487.314 840.509 495.41C822.002 522.265 786.846 505.791 757.706 490.668C713.745 467.852 661.747 437.11 630.318 399.178C621.866 388.959 619.233 378.952 620.094 369.316C622.081 347.02 642.827 326.715 653.414 310.559C657.357 304.491 661.323 298.438 665.305 292.362Z" fill="#1B262C"/>
<path d="M654.274 222.788C655.665 221.847 657.213 221.078 658.52 220.521C663.744 218.355 669.745 217.878 675.347 218.115C677.87 218.22 680.502 218.262 682.966 218.664C697.213 220.965 712.026 222.761 726.512 224.646C760.145 229.113 793.89 233.047 826.81 241.323C833.485 243.004 839.332 245.691 844.584 249.133C858.385 258.177 868.025 272.439 877.294 287.063C892.715 311.409 908.175 335.747 923.588 360.053C931.615 372.719 940.717 385.08 947.89 398.331C951.765 405.517 957.291 416.914 949.934 424.852C944.894 430.335 936.602 428.605 930.08 427.563C920.251 425.969 910.429 424.313 900.608 422.759C896.823 422.164 893.039 421.569 889.239 420.998C873.984 418.643 858.737 416.326 843.504 413.885C837.405 412.918 831.321 411.928 825.253 410.913C810.99 408.535 796.213 407.402 782.085 404.406C771.993 402.236 763.154 398.464 755.335 393.34C743.489 385.577 733.977 374.664 725.93 361.412C709.061 333.728 691.478 306.619 673.7 279.551C669.155 272.566 664.554 265.613 659.978 258.675C653.82 249.321 640.914 231.976 654.274 222.788Z" fill="#1B262C"/>
<path d="M859.964 551.923C859.964 551.923 856.103 557.405 852.37 565.361C852.37 565.361 831.842 556.925 825.88 536.69C825.88 536.69 829.409 531.664 831.606 530.007L859.964 551.923Z" fill="#ED6C30"/>
<path d="M862.333 548.257C863.32 546.648 864.243 544.931 865.066 543.214C867.17 538.769 868.018 534.342 867.05 529.5C866.758 528.097 866.179 526.977 865.507 525.998L928.799 429.416L916.623 421.437L908.675 433.566C907.794 434.807 907.015 436.047 906.283 437.216L898.782 448.662L898.853 448.708C898.05 449.933 897.248 451.157 896.469 452.398C889.757 462.845 882.778 473.084 875.854 483.393C874.418 485.482 872.99 487.609 871.586 489.752L853.298 517.66C850.989 517.124 848.585 517.299 845.932 518.523C842.765 520.016 839.979 522.264 837.342 524.541C836.031 525.669 831.598 529.968 831.598 529.968C831.598 529.968 830.136 531.736 831.481 533.897C833.403 536.974 838.474 543.26 850.543 549.553C852.119 550.384 853.803 551.05 855.51 551.529C856.809 551.909 858.736 552.667 859.98 551.899C860.811 551.401 861.894 548.979 862.333 548.257ZM806.781 553.968C810.722 551.601 814.299 548.66 817.609 545.51C819.276 543.943 825.88 536.69 825.88 536.69C825.88 536.69 827.561 542.807 838.732 551.138C847.907 557.992 855.061 560.021 855.061 560.021C855.061 560.021 851.958 568.558 845.864 578.064C842.153 583.88 837.687 588.898 832.009 592.785C830.23 594.01 828.295 595.267 826.127 595.596C824.458 595.883 821.818 594.826 821.101 593.145C820.631 591.961 821.448 591.588 821.839 590.632C822.844 588.328 819.877 589.413 818.779 589.805C816.871 590.507 815.91 591.46 813.789 590.844C810.728 589.915 805.83 587.783 806.135 583.876C806.234 582.493 807.591 582.271 806.146 581.291C805.44 580.828 803.703 581.474 802.939 581.613C801.371 581.898 800.142 581.463 798.916 580.457C796.881 578.888 794.497 575.744 795.577 573.018C795.905 572.055 798.42 571.144 796.616 570.097C794.921 569.087 792.722 570.541 790.829 569.065C789.187 567.82 788.709 565.723 789.217 563.767C790.158 560.276 794.627 558.593 797.76 557.717C801.025 556.793 803.89 555.708 806.781 553.968Z" fill="#F79329"/>
<path d="M920.198 431.085C919.821 430.838 919.475 430.544 919.144 430.227L804.688 313.714C802.231 311.195 802.246 307.165 804.78 304.685C807.299 302.228 811.329 302.243 813.809 304.778L928.266 421.291C930.722 423.809 930.707 427.839 928.173 430.319C927.127 431.33 925.768 431.957 924.319 432.096C922.871 432.235 921.418 431.879 920.198 431.085Z" fill="#F79329"/>
</g>
<defs>
<clipPath id="clip0_309_148">
<rect width="360.411" height="360.411" fill="white" transform="translate(725.544 111) rotate(33.2373)"/>
</clipPath>
</defs>
</svg>
