<svg width="1161" height="1272" viewBox="0 0 1161 1272" fill="none" xmlns="http://www.w3.org/2000/svg">
<circle cx="580.5" cy="691.5" r="580.5" fill="#BBE1FA"/>
<path d="M561.4 1047C497.933 1047 442.733 1035.53 395.8 1012.6C348.867 989.133 312.867 956.067 287.8 913.4C262.733 870.733 250.2 821.133 250.2 764.6C250.2 686.2 264.867 616.6 294.2 555.8C324.067 495 364.333 448.067 415 415C465.667 381.4 521.933 364.6 583.8 364.6C641.4 364.6 685.133 379.533 715 409.4C744.867 438.733 759.8 477.667 759.8 526.2C759.8 558.733 753.933 584.867 742.2 604.6C731 624.333 714.733 634.2 693.4 634.2C678.467 634.2 666.733 630.733 658.2 623.8C649.667 616.867 645.4 606.733 645.4 593.4C645.4 588.6 646.467 579.8 648.6 567C651.8 551 653.4 538.2 653.4 528.6C653.4 480.067 627.533 455.8 575.8 455.8C540.6 455.8 507 467.267 475 490.2C443 513.133 417.133 547 397.4 591.8C377.667 636.067 367.8 688.867 367.8 750.2C367.8 814.2 385.667 863.8 421.4 899C457.133 933.667 509.933 951 579.8 951C614.467 951 649.4 946.733 684.6 938.2C720.333 929.133 759.8 915.533 803 897.4C811 894.2 817.667 892.6 823 892.6C831.533 892.6 837.933 895.8 842.2 902.2C846.467 908.6 848.6 916.867 848.6 927C848.6 959.533 831 983.533 795.8 999C757.933 1015.53 718.467 1027.8 677.4 1035.8C636.867 1043.27 598.2 1047 561.4 1047Z" fill="#0F4C75"/>
<g clip-path="url(#clip0_310_95)">
<path d="M639.427 247.922L855.058 389.227L792.508 484.679L576.877 343.373L639.427 247.922Z" fill="#2F2F2F"/>
<path d="M610.305 292.362C626.716 317.458 643.271 343.052 658.93 368.731C668.662 384.703 679.681 396.604 692.634 405.092C702.078 411.281 712.671 415.664 724.163 418.111C733.191 420.055 742.345 421.24 751.21 422.404C757.003 423.17 762.476 423.861 767.957 424.794C774.065 425.8 780.187 426.782 786.295 427.788C796.913 429.462 807.524 431.096 818.174 432.722C820.715 433.108 823.24 433.518 825.805 433.919L801.683 470.729C796.297 478.948 791.084 487.314 785.509 495.41C767.002 522.265 731.846 505.792 702.706 490.668C658.745 467.852 606.747 437.111 575.318 399.178C566.866 388.959 564.233 378.953 565.094 369.316C567.081 347.02 587.827 326.715 598.414 310.559C602.357 304.491 606.323 298.439 610.305 292.362Z" fill="#1B262C"/>
<path d="M599.274 222.788C600.665 221.848 602.213 221.078 603.52 220.521C608.744 218.355 614.745 217.878 620.347 218.115C622.87 218.22 625.502 218.262 627.966 218.664C642.213 220.965 657.026 222.761 671.512 224.646C705.145 229.113 738.89 233.048 771.81 241.323C778.485 243.004 784.332 245.691 789.584 249.133C803.385 258.177 813.025 272.439 822.294 287.064C837.715 311.409 853.175 335.747 868.588 360.053C876.615 372.72 885.717 385.081 892.89 398.332C896.765 405.517 902.291 416.914 894.934 424.852C889.894 430.336 881.602 428.605 875.08 427.563C865.251 425.969 855.429 424.313 845.608 422.759C841.823 422.164 838.039 421.569 834.239 420.998C818.984 418.643 803.737 416.327 788.504 413.885C782.405 412.918 776.321 411.928 770.253 410.914C755.99 408.535 741.213 407.402 727.085 404.406C716.993 402.236 708.154 398.464 700.335 393.34C688.489 385.577 678.977 374.664 670.93 361.412C654.061 333.728 636.478 306.619 618.7 279.551C614.155 272.566 609.554 265.613 604.978 258.675C598.82 249.321 585.914 231.976 599.274 222.788Z" fill="#1B262C"/>
<path d="M804.964 551.923C804.964 551.923 801.103 557.405 797.37 565.361C797.37 565.361 776.842 556.925 770.88 536.69C770.88 536.69 774.409 531.664 776.606 530.007L804.964 551.923Z" fill="#ED6C30"/>
<path d="M807.333 548.257C808.32 546.648 809.243 544.931 810.066 543.214C812.17 538.769 813.018 534.342 812.05 529.5C811.758 528.097 811.179 526.977 810.507 525.998L873.799 429.416L861.623 421.437L853.675 433.566C852.794 434.807 852.015 436.047 851.283 437.216L843.782 448.662L843.853 448.708C843.05 449.933 842.248 451.157 841.469 452.398C834.757 462.845 827.778 473.084 820.854 483.393C819.418 485.482 817.99 487.609 816.586 489.752L798.298 517.66C795.989 517.124 793.585 517.299 790.932 518.523C787.765 520.016 784.979 522.264 782.342 524.541C781.031 525.669 776.598 529.968 776.598 529.968C776.598 529.968 775.136 531.736 776.481 533.897C778.403 536.974 783.474 543.26 795.543 549.553C797.119 550.384 798.803 551.05 800.51 551.529C801.809 551.909 803.736 552.667 804.98 551.899C805.811 551.401 806.894 548.979 807.333 548.257ZM751.781 553.968C755.722 551.601 759.299 548.66 762.609 545.51C764.276 543.943 770.88 536.69 770.88 536.69C770.88 536.69 772.561 542.807 783.732 551.138C792.907 557.992 800.061 560.021 800.061 560.021C800.061 560.021 796.958 568.558 790.864 578.064C787.153 583.88 782.687 588.898 777.009 592.785C775.23 594.01 773.295 595.267 771.127 595.596C769.458 595.883 766.818 594.826 766.101 593.145C765.631 591.961 766.448 591.588 766.839 590.632C767.844 588.328 764.877 589.413 763.779 589.805C761.871 590.507 760.91 591.46 758.789 590.844C755.728 589.915 750.83 587.783 751.135 583.876C751.234 582.493 752.591 582.271 751.146 581.291C750.44 580.828 748.703 581.474 747.939 581.613C746.371 581.898 745.142 581.463 743.916 580.457C741.881 578.888 739.497 575.744 740.577 573.018C740.905 572.055 743.42 571.144 741.616 570.097C739.921 569.087 737.722 570.541 735.829 569.065C734.187 567.82 733.709 565.723 734.217 563.767C735.158 560.276 739.627 558.593 742.76 557.717C746.025 556.793 748.89 555.708 751.781 553.968Z" fill="#F79329"/>
<path d="M865.198 431.085C864.821 430.838 864.475 430.544 864.144 430.226L749.688 313.713C747.231 311.195 747.246 307.165 749.78 304.685C752.299 302.228 756.329 302.243 758.809 304.777L873.266 421.29C875.722 423.809 875.707 427.839 873.173 430.319C872.127 431.33 870.768 431.957 869.319 432.096C867.871 432.235 866.418 431.879 865.198 431.085Z" fill="#F79329"/>
</g>
<defs>
<clipPath id="clip0_310_95">
<rect width="360.411" height="360.411" fill="white" transform="translate(670.544 111) rotate(33.2373)"/>
</clipPath>
</defs>
</svg>
